{"glyphs":{"0":{"ha":322,"x_min":0,"x_max":0,"o":"m 163 1117 b 293 951 257 1117 289 1043 b 297 561 296 813 297 653 b 292 181 297 475 294 279 b 163 -7 286 49 247 -7 b 33 181 74 -7 38 51 b 26 557 31 244 26 458 b 29 950 26 669 28 860 b 163 1117 33 1039 64 1117 m 214 560 b 213 953 214 704 213 889 b 161 1036 213 1006 197 1036 b 111 951 119 1036 113 1000 b 108 557 108 881 108 653 b 113 150 108 474 108 240 b 163 71 114 103 128 71 b 211 151 199 71 210 107 b 214 560 214 236 214 446 "},"1":{"ha":231,"x_min":0,"x_max":0,"o":"m 113 0 l 113 957 l 7 957 l 7 1029 b 143 1111 79 1039 119 1068 l 199 1111 l 199 0 "},"2":{"ha":310,"x_min":0,"x_max":0,"o":"m 17 0 l 17 89 b 206 808 17 307 196 532 b 206 947 206 832 206 931 b 154 1032 206 1019 185 1032 b 101 954 124 1032 101 1014 b 101 786 101 939 101 813 l 19 786 b 19 954 19 806 19 935 b 161 1117 19 1051 68 1117 b 290 968 256 1117 283 1056 b 289 797 292 950 290 821 b 104 86 281 522 108 297 l 286 86 l 286 0 "},"3":{"ha":299,"x_min":0,"x_max":0,"o":"m 153 599 b 282 447 235 589 279 543 b 282 157 285 372 283 215 b 142 -7 281 50 228 -7 b 10 138 54 -7 10 47 b 7 322 8 225 7 322 l 89 322 b 89 128 89 322 89 193 b 139 74 89 90 111 74 b 197 150 176 74 197 96 b 197 429 197 215 197 386 b 110 544 197 501 176 535 l 72 549 l 72 636 l 108 639 b 192 763 171 651 192 688 b 192 965 192 804 192 943 b 144 1032 192 1019 169 1032 b 99 963 115 1032 99 1007 b 97 806 99 925 97 806 l 18 806 b 19 968 18 806 19 936 b 144 1117 21 1054 67 1117 b 272 960 242 1117 272 1054 b 272 775 272 931 272 804 b 153 599 272 678 236 606 "},"4":{"ha":336,"x_min":0,"x_max":0,"o":"m 268 275 l 268 0 l 188 0 l 188 275 l 8 275 l 8 363 l 160 1111 l 268 1111 l 268 353 l 332 353 l 332 275 m 188 914 l 82 353 l 188 353 "},"5":{"ha":303,"x_min":0,"x_max":0,"o":"m 283 136 b 149 -7 282 58 246 -7 b 18 147 60 -7 18 54 b 18 289 18 222 18 211 l 100 289 b 100 161 100 276 100 179 b 151 72 100 110 111 72 b 201 158 192 72 201 111 b 200 564 201 206 200 485 b 154 633 200 610 182 633 b 103 547 128 633 103 618 l 24 544 l 24 1111 l 271 1111 l 271 1026 l 101 1026 l 101 668 b 181 718 113 699 138 718 b 282 592 243 718 279 671 b 283 136 285 499 288 239 "},"6":{"ha":331,"x_min":0,"x_max":0,"o":"m 288 128 b 163 -7 279 57 253 -7 b 36 132 83 -7 46 42 b 28 557 28 228 28 454 b 31 929 28 661 28 878 b 161 1117 33 1046 69 1117 b 292 974 253 1117 286 1051 b 292 843 293 939 292 865 l 213 843 b 213 931 213 867 213 919 b 161 1033 213 994 207 1033 b 111 929 121 1033 113 1001 b 108 607 110 879 108 628 b 194 668 122 653 161 668 b 290 579 253 668 286 624 b 288 128 297 479 296 189 m 210 150 b 211 529 210 188 211 492 b 172 585 211 554 204 585 b 108 506 139 585 113 561 b 111 144 108 442 110 181 b 161 71 114 88 133 71 b 210 150 190 71 208 86 "},"7":{"ha":274,"x_min":0,"x_max":0,"o":"m 125 0 l 40 0 l 188 1026 l 6 1026 l 6 1111 l 271 1111 l 271 1033 "},"8":{"ha":318,"x_min":0,"x_max":0,"o":"m 297 154 b 157 -7 293 50 250 -7 b 19 154 54 -7 21 57 b 19 496 18 190 19 419 b 90 611 21 565 57 599 b 29 736 57 625 29 644 b 28 974 29 751 28 957 b 157 1117 29 1051 65 1117 b 289 978 254 1117 289 1053 l 289 739 b 222 611 288 660 263 625 b 299 493 268 599 297 557 b 297 154 300 435 299 190 m 210 500 b 157 564 210 543 185 564 b 104 497 131 564 104 544 l 104 146 b 157 71 104 103 121 71 b 210 142 192 71 210 103 m 204 969 b 156 1035 204 1018 183 1035 b 111 969 133 1035 111 1018 l 111 706 b 157 646 111 656 136 646 b 204 704 178 646 204 658 "},"9":{"ha":318,"x_min":0,"x_max":0,"o":"m 289 157 b 156 -7 285 44 239 -7 b 29 128 88 -7 33 36 b 26 263 26 163 26 240 l 107 263 b 107 160 107 240 107 175 b 158 71 107 89 126 71 b 208 144 188 71 207 94 b 208 490 210 199 208 471 b 126 439 193 450 154 439 b 29 531 76 439 36 461 b 31 990 22 631 24 906 b 160 1117 38 1064 82 1117 b 286 1001 233 1117 269 1079 b 293 590 297 949 293 693 b 289 157 293 486 292 207 m 208 582 b 207 971 208 646 208 935 b 157 1035 206 1014 189 1035 b 110 965 128 1035 110 1014 b 108 575 108 928 107 611 b 156 521 110 533 128 521 b 208 582 182 521 201 543 "},"Ð":{"ha":346,"x_min":0,"x_max":0,"o":"m 8 511 l 8 610 l 39 610 l 39 1111 l 168 1111 b 310 999 253 1111 297 1069 b 322 581 322 949 322 685 b 310 110 322 453 324 171 b 185 0 299 54 274 0 l 39 0 l 39 511 m 178 610 l 178 511 l 125 511 l 125 78 l 186 78 b 238 140 213 78 236 96 b 239 582 239 186 239 542 b 238 936 239 622 238 896 b 172 1025 238 994 208 1025 l 125 1025 l 125 610 "},"ð":{"ha":300,"x_min":0,"x_max":0,"o":"m 193 824 b 167 819 185 821 175 819 b 83 900 128 819 96 851 l 125 917 b 165 869 132 888 144 869 b 193 881 176 869 183 872 b 193 940 193 907 193 931 b 146 1043 193 1007 186 1043 b 106 990 113 1043 106 1026 b 106 961 106 981 106 965 l 26 961 b 28 1008 26 967 28 992 b 143 1117 31 1064 71 1117 b 268 961 232 1117 265 1054 b 269 918 268 949 269 935 b 300 924 281 924 289 924 b 381 847 344 924 368 890 l 340 826 b 299 875 333 856 319 875 b 271 863 286 875 278 868 b 275 640 272 794 275 707 b 264 132 275 538 274 226 b 149 -7 254 42 236 -7 b 31 108 68 -7 42 31 b 29 644 19 189 22 546 b 128 738 33 689 69 738 b 193 690 160 738 175 728 b 193 824 193 703 193 765 m 106 149 b 149 69 107 83 117 69 b 192 143 181 69 190 79 b 194 568 193 178 194 504 b 149 660 190 615 183 660 b 106 601 113 660 106 626 b 106 149 106 564 104 186 "},"Ł":{"ha":297,"x_min":0,"x_max":0,"o":"m 125 89 l 290 89 l 290 0 l 38 0 l 38 376 l 7 358 l 7 417 l 38 435 l 38 1111 l 125 1111 l 125 475 l 215 526 l 215 468 l 125 417 "},"ł":{"ha":140,"x_min":0,"x_max":0,"o":"m 111 57 b 114 0 111 22 113 6 l 38 0 b 32 43 33 4 32 24 l 32 374 l 4 358 l 4 417 l 32 432 l 32 1050 b 29 1111 32 1069 31 1103 l 108 1111 b 111 1071 108 1111 111 1089 l 111 471 b 135 486 113 474 135 486 l 135 426 l 111 413 "},"Š":{"ha":310,"x_min":0,"x_max":0,"o":"m 296 203 b 151 -8 296 47 243 -8 b 11 133 61 -8 11 43 l 11 290 l 92 290 l 92 150 b 147 71 92 92 114 71 b 206 188 185 71 206 96 b 142 499 206 313 190 390 b 89 608 129 525 104 578 b 6 924 32 721 6 800 b 153 1117 6 1049 60 1117 b 290 932 253 1117 289 1042 b 292 807 290 925 292 807 l 207 807 l 207 929 b 151 1032 207 994 196 1032 b 96 915 110 1032 96 1000 b 167 656 96 826 119 744 b 219 551 183 624 203 586 b 296 203 274 439 296 338 m 110 1315 l 154 1213 l 200 1315 l 272 1315 l 203 1154 l 106 1154 l 36 1315 "},"š":{"ha":254,"x_min":0,"x_max":0,"o":"m 243 190 b 124 -7 243 54 206 -7 b 8 117 56 -7 10 28 b 7 229 7 146 7 196 l 81 229 b 81 126 81 222 81 165 b 122 67 81 79 97 67 b 167 190 151 67 167 90 b 101 361 167 271 136 315 b 11 615 58 418 11 479 b 125 772 11 706 46 772 b 232 661 197 772 226 728 b 235 528 235 642 235 543 l 161 528 b 161 636 161 535 161 629 b 124 694 161 674 153 694 b 86 607 99 694 86 671 b 165 410 86 510 125 463 b 243 190 204 358 243 303 m 81 972 l 125 869 l 171 972 l 243 972 l 174 811 l 76 811 l 7 972 "},"Ý":{"ha":353,"x_min":0,"x_max":0,"o":"m 217 414 l 217 0 l 126 0 l 126 410 l 0 1111 l 88 1111 b 174 553 88 1111 172 611 b 264 1111 175 613 264 1111 l 353 1111 m 185 1311 l 276 1311 l 192 1151 l 115 1151 "},"ý":{"ha":275,"x_min":0,"x_max":0,"o":"m 135 -222 l 53 -222 l 94 47 l 0 764 l 82 764 b 136 226 82 754 136 233 b 194 764 138 233 193 753 l 275 764 m 147 968 l 239 968 l 154 808 l 78 808 "},"Þ":{"ha":335,"x_min":0,"x_max":0,"o":"m 126 894 l 165 894 b 306 735 243 894 299 851 b 317 569 314 694 317 607 b 304 401 317 529 313 440 b 172 246 296 297 246 247 l 125 246 l 125 0 l 36 0 l 36 1111 l 126 1111 m 226 650 b 151 801 226 774 199 801 l 125 801 l 125 329 l 153 329 b 226 463 203 329 226 383 l 226 650 "},"þ":{"ha":290,"x_min":0,"x_max":0,"o":"m 267 397 b 264 106 267 281 267 147 b 174 -1 260 36 225 -1 b 106 24 138 -1 118 10 l 106 -222 l 29 -222 l 29 1111 l 104 1111 l 104 718 b 178 771 117 757 147 771 b 263 674 226 771 257 746 b 267 397 265 617 267 510 m 188 643 b 150 693 188 674 176 693 b 106 624 117 693 106 663 l 106 118 b 149 72 106 94 117 72 b 188 131 175 72 188 88 l 188 643 "},"Ž":{"ha":290,"x_min":0,"x_max":0,"o":"m 4 0 l 4 78 l 196 1026 l 17 1026 l 17 1111 l 283 1111 l 283 1042 l 90 83 l 289 83 l 289 0 m 100 1315 l 144 1213 l 190 1315 l 263 1315 l 193 1154 l 96 1154 l 26 1315 "},"ž":{"ha":235,"x_min":0,"x_max":0,"o":"m 6 0 l 6 82 l 149 689 l 8 689 l 8 764 l 228 764 l 228 679 l 83 75 l 228 75 l 228 0 m 72 972 l 117 869 l 163 972 l 235 972 l 165 811 l 68 811 l -1 972 "},"½":{"ha":539,"x_min":0,"x_max":0,"o":"m 97 539 l 97 996 l 6 996 l 6 1043 b 119 1111 83 1044 103 1069 l 161 1111 l 161 539 m 376 1111 b 247 540 376 1111 297 764 b 128 0 200 332 128 0 l 83 0 b 217 588 83 0 165 357 b 333 1111 263 790 333 1111 l 376 1111 m 292 0 l 292 49 b 451 414 294 201 451 281 b 451 451 451 425 451 443 b 401 522 451 508 432 522 b 358 457 372 522 358 504 b 358 382 358 442 358 407 l 296 382 b 296 449 296 400 296 432 b 410 576 296 528 331 576 b 514 463 482 576 511 531 b 513 401 514 451 514 413 b 361 54 511 271 371 196 l 511 54 l 511 0 "},"¼":{"ha":539,"x_min":0,"x_max":0,"o":"m 97 539 l 97 996 l 6 996 l 6 1043 b 119 1111 83 1044 103 1069 l 161 1111 l 161 539 m 396 1111 b 267 540 396 1111 317 764 b 147 0 219 332 147 0 l 103 0 b 235 588 103 0 183 357 b 353 1111 281 790 353 1111 l 396 1111 m 468 171 l 468 0 l 406 0 l 406 171 l 260 171 l 260 226 l 392 571 l 468 571 l 468 225 l 517 225 l 517 171 m 406 472 l 317 225 l 406 225 "},"¹":{"ha":268,"x_min":0,"x_max":0,"o":"m 108 539 l 108 996 l 18 996 l 18 1043 b 131 1111 96 1044 115 1069 l 172 1111 l 172 539 "},"¾":{"ha":561,"x_min":0,"x_max":0,"o":"m 117 821 b 239 731 225 819 236 769 b 238 646 240 706 240 675 b 124 529 233 551 183 529 b 14 628 68 529 14 554 b 13 707 14 665 13 707 l 75 707 b 75 625 75 707 75 661 b 126 581 75 590 93 581 b 174 639 167 581 174 603 b 174 715 174 667 174 676 b 97 786 174 757 167 781 l 67 789 l 67 846 l 96 850 b 168 942 154 861 168 871 b 168 1015 168 981 168 996 b 126 1060 168 1047 150 1060 b 83 1015 97 1060 83 1046 b 83 939 83 983 83 939 l 21 939 b 22 1017 21 939 22 988 b 126 1115 24 1076 60 1115 b 231 1011 210 1115 231 1069 b 231 946 231 982 231 972 b 117 821 231 863 210 829 m 432 1111 b 303 540 432 1111 353 764 b 183 0 256 332 183 0 l 140 0 b 272 588 140 0 221 357 b 390 1111 318 790 390 1111 l 432 1111 m 497 171 l 497 0 l 436 0 l 436 171 l 290 171 l 290 226 l 422 571 l 497 571 l 497 225 l 547 225 l 547 171 m 436 472 l 347 225 l 436 225 "},"³":{"ha":290,"x_min":0,"x_max":0,"o":"m 140 821 b 263 731 250 819 260 769 b 263 646 264 706 264 675 b 149 529 257 551 207 529 b 38 628 92 529 38 554 b 36 707 38 665 36 707 l 99 707 b 99 625 99 707 99 661 b 150 581 99 590 118 581 b 197 639 190 581 197 603 b 197 715 197 667 197 676 b 122 786 197 757 190 781 l 90 789 l 90 846 l 119 850 b 192 942 178 861 192 871 b 192 1015 192 981 192 996 b 150 1060 192 1047 175 1060 b 107 1015 121 1060 107 1046 b 108 939 107 983 108 939 l 44 939 b 47 1017 44 939 47 988 b 150 1115 47 1076 83 1115 b 254 1011 233 1115 254 1069 b 254 946 254 982 254 972 b 140 821 254 863 233 829 "},"²":{"ha":297,"x_min":0,"x_max":0,"o":"m 35 539 l 35 588 b 194 953 38 740 194 819 b 194 990 194 964 194 982 b 144 1061 194 1047 174 1061 b 100 996 115 1061 100 1043 b 100 921 100 981 100 946 l 38 921 b 38 988 38 939 38 971 b 153 1115 38 1067 74 1115 b 257 1001 225 1115 256 1069 b 257 940 257 990 257 951 b 106 594 256 810 115 736 l 254 594 l 254 539 "},"¦":{"ha":181,"x_min":0,"x_max":0,"o":"m 56 497 l 56 1111 l 126 1111 l 126 497 m 56 -278 l 56 306 l 126 306 l 126 -278 "},"−":{"ha":306,"x_min":0,"x_max":0,"o":"m 6 514 l 6 596 l 300 596 l 300 514 "},"×":{"ha":294,"x_min":0,"x_max":0,"o":"m 192 543 l 269 467 l 224 414 l 147 493 l 71 414 l 25 467 l 103 543 l 25 619 l 71 672 l 147 594 l 224 672 l 269 619 "}," ":{"ha":151,"x_min":0,"x_max":0,"o":""},"!":{"ha":181,"x_min":0,"x_max":0,"o":"m 125 240 l 57 240 l 49 1111 l 132 1111 m 47 0 l 47 169 l 133 169 l 133 0 "},"\"":{"ha":244,"x_min":0,"x_max":0,"o":"m 225 733 l 150 733 l 147 1111 l 228 1111 m 93 733 l 19 733 l 17 1111 l 96 1111 "},"#":{"ha":381,"x_min":0,"x_max":0,"o":"m 368 588 l 286 588 l 278 485 l 361 485 l 358 411 l 274 411 l 238 -3 l 178 -3 l 213 411 l 146 411 l 111 -3 l 51 -3 l 85 411 l 6 411 l 8 485 l 90 485 l 99 588 l 15 588 l 19 660 l 104 660 l 136 1024 l 197 1024 l 165 660 l 232 660 l 263 1024 l 324 1024 l 292 660 l 372 660 m 160 588 l 151 485 l 217 485 l 226 588 "},"$":{"ha":307,"x_min":0,"x_max":0,"o":"m 129 13 b 14 178 50 24 14 86 b 14 292 14 196 14 250 l 90 292 b 89 172 90 263 89 193 b 129 85 89 124 100 94 l 129 543 b 118 561 125 549 122 556 b 17 900 31 710 17 754 b 129 1093 17 1011 50 1082 l 129 1118 l 183 1118 l 183 1093 b 293 906 263 1081 292 1013 b 294 794 294 879 294 838 l 217 794 b 217 906 217 846 217 886 b 183 1014 217 956 206 1001 l 183 604 b 185 601 183 603 185 603 b 294 214 271 463 294 415 b 183 14 294 94 258 28 l 183 -53 l 129 -53 l 129 13 m 129 1015 b 93 903 104 1004 93 960 b 129 697 93 825 97 769 l 129 1015 m 183 89 b 215 201 204 104 215 139 b 183 450 215 308 215 378 l 183 89 "},"%":{"ha":504,"x_min":0,"x_max":0,"o":"m 488 156 b 376 -8 488 44 453 -8 b 271 156 297 -8 271 49 l 271 390 b 379 556 271 490 303 556 b 488 390 465 556 488 483 l 488 156 m 233 722 b 122 557 233 611 199 557 b 17 722 43 557 17 615 l 17 957 b 125 1121 17 1056 49 1121 b 233 957 211 1121 233 1050 l 233 722 m 124 0 l 72 0 l 365 1061 l 417 1061 m 169 974 b 125 1047 169 1024 151 1047 b 81 974 97 1047 81 1025 l 81 724 b 125 629 81 651 97 629 b 169 721 154 629 169 650 m 424 407 b 379 481 424 457 406 481 b 335 407 351 481 335 460 l 335 157 b 379 64 335 86 351 64 b 424 156 408 64 424 83 "},"&":{"ha":403,"x_min":0,"x_max":0,"o":"m 175 593 b 265 307 199 510 231 411 b 274 514 269 361 274 432 l 347 514 b 321 185 347 367 338 260 b 394 0 344 125 369 64 l 308 0 b 279 85 299 29 289 58 b 154 -7 247 8 203 -7 b 13 199 68 -7 15 47 b 13 325 13 221 13 303 b 93 600 14 424 51 514 b 42 861 61 703 42 792 b 42 960 42 883 42 925 b 164 1115 43 1056 79 1115 b 272 971 236 1115 271 1054 b 272 894 272 958 272 906 b 175 593 269 788 224 688 m 143 689 b 200 897 168 743 199 831 b 200 964 200 910 200 954 b 161 1024 200 1007 182 1024 b 115 958 138 1024 115 1008 b 115 867 115 949 115 876 b 143 689 115 822 126 760 m 129 506 b 88 260 106 436 88 356 b 156 78 88 113 113 79 b 232 193 182 78 214 82 b 129 506 194 306 157 413 "},"'":{"ha":146,"x_min":0,"x_max":0,"o":"m 110 722 l 33 722 l 31 1111 l 114 1111 "},"(":{"ha":183,"x_min":0,"x_max":0,"o":"m 96 -97 b 15 508 54 36 15 279 b 96 1111 15 743 65 992 l 181 1111 b 99 506 149 982 99 726 b 181 -97 99 288 140 43 "},")":{"ha":183,"x_min":0,"x_max":0,"o":"m 172 508 b 92 -97 172 279 133 36 l 7 -97 b 89 506 47 43 89 288 b 7 1111 89 726 39 982 l 92 1111 b 172 508 122 992 172 743 "},"*":{"ha":383,"x_min":0,"x_max":0,"o":"m 331 1025 l 353 967 l 235 908 l 326 810 l 282 768 l 192 865 l 101 768 l 57 810 l 149 907 l 31 967 l 51 1025 l 164 972 l 164 1113 l 221 1113 l 221 972 "},"+":{"ha":306,"x_min":0,"x_max":0,"o":"m 189 521 l 189 388 l 117 388 l 117 521 l 4 521 l 4 590 l 117 590 l 117 724 l 189 724 l 189 590 l 300 590 l 300 521 "},",":{"ha":201,"x_min":0,"x_max":0,"o":"m 83 -122 l 36 -104 l 81 -7 l 81 0 l 49 0 l 49 171 l 153 171 l 153 -3 "},"-":{"ha":258,"x_min":0,"x_max":0,"o":"m 8 517 l 8 606 l 250 606 l 250 517 "},".":{"ha":201,"x_min":0,"x_max":0,"o":"m 46 0 l 46 171 l 154 171 l 154 0 "},"/":{"ha":181,"x_min":0,"x_max":0,"o":"m 31 -222 l -26 -222 l 125 1111 l 182 1111 "},":":{"ha":186,"x_min":0,"x_max":0,"o":"m 50 526 l 50 693 l 149 693 l 149 526 m 50 0 l 50 167 l 149 167 l 149 0 "},";":{"ha":186,"x_min":0,"x_max":0,"o":"m 50 526 l 50 693 l 149 693 l 149 526 m 85 -122 l 38 -104 l 79 -7 l 79 0 l 50 0 l 50 167 l 149 167 l 149 -1 "},"<":{"ha":415,"x_min":0,"x_max":0,"o":"m 17 506 l 17 581 l 393 719 l 393 644 l 92 544 l 393 438 l 393 365 "},"=":{"ha":307,"x_min":0,"x_max":0,"o":"m 14 601 l 14 669 l 293 669 l 293 601 m 14 440 l 14 508 l 293 508 l 293 440 "},">":{"ha":415,"x_min":0,"x_max":0,"o":"m 19 365 l 19 438 l 321 544 l 19 644 l 19 719 l 396 581 l 396 506 "},"?":{"ha":300,"x_min":0,"x_max":0,"o":"m 272 832 b 165 240 271 661 157 561 l 97 240 b 189 851 85 590 189 646 b 189 953 189 879 189 926 b 142 1035 189 1006 176 1035 b 93 958 110 1035 93 1006 b 93 849 93 943 93 861 l 17 849 b 17 978 17 896 17 961 b 149 1117 17 1067 68 1117 b 272 969 224 1117 268 1072 b 272 832 272 928 272 865 m 90 0 l 90 169 l 178 169 l 178 0 "},"@":{"ha":804,"x_min":0,"x_max":0,"o":"m 772 586 b 583 283 753 394 693 283 b 488 378 524 283 493 319 b 331 282 451 311 400 282 b 190 515 231 282 172 354 b 417 814 210 697 293 814 b 531 733 472 814 513 783 l 547 797 l 614 792 b 551 469 614 792 564 525 b 596 351 540 417 542 351 b 718 589 669 351 704 454 b 464 1011 743 857 658 1011 b 85 557 269 1011 111 836 b 349 64 50 196 169 64 b 581 149 453 64 514 96 l 608 106 b 349 13 542 56 469 13 b 32 553 138 13 -1 168 b 469 1060 57 869 235 1060 b 772 586 721 1060 800 846 m 501 640 b 419 746 506 679 482 746 b 279 526 349 746 300 676 b 346 350 264 411 279 350 b 474 483 418 350 454 399 b 501 640 481 515 497 604 "},"A":{"ha":321,"x_min":0,"x_max":0,"o":"m 106 271 b 85 0 106 240 85 0 l 0 0 l 115 1111 l 231 1111 l 321 0 l 235 0 b 218 271 235 0 219 240 b 106 271 218 271 107 271 m 213 354 b 175 796 213 354 175 768 b 168 1008 175 824 168 1008 b 158 797 168 1008 160 825 b 114 354 156 758 114 354 l 213 354 "},"B":{"ha":358,"x_min":0,"x_max":0,"o":"m 322 93 b 207 0 306 31 281 0 l 38 0 l 38 1111 l 197 1111 b 317 1025 257 1111 306 1085 b 325 840 322 994 325 894 b 318 653 325 783 322 682 b 260 564 311 601 296 574 b 322 488 296 557 315 532 b 331 304 329 447 331 360 b 322 93 331 238 333 135 m 236 822 b 235 964 236 881 235 939 b 181 1028 235 1001 213 1028 l 122 1028 l 122 600 l 199 600 b 235 651 214 600 233 614 b 236 822 236 674 236 756 m 239 133 b 240 315 240 163 240 274 b 238 469 240 360 239 442 b 200 521 236 507 219 521 l 122 521 l 122 82 l 199 82 b 239 133 222 82 238 96 "},"C":{"ha":343,"x_min":0,"x_max":0,"o":"m 326 171 b 179 -8 326 56 272 -8 b 33 147 83 -8 39 50 b 29 564 29 243 29 461 b 31 939 29 667 31 900 b 190 1117 33 1072 92 1117 b 325 922 281 1117 324 1056 l 325 750 l 239 750 b 239 964 239 811 240 919 b 179 1029 238 1010 214 1029 b 119 953 142 1029 119 1001 b 118 564 118 904 118 646 b 121 174 118 468 119 204 b 182 78 125 97 147 78 b 242 181 213 78 242 93 l 242 360 l 326 360 "},"D":{"ha":344,"x_min":0,"x_max":0,"o":"m 310 110 b 182 0 297 54 271 0 l 38 0 l 38 1111 l 165 1111 b 310 1000 250 1111 294 1069 b 322 581 319 950 322 815 b 310 110 322 453 322 165 m 235 142 b 236 582 236 188 236 542 b 235 938 236 622 235 897 b 169 1026 235 996 206 1026 l 124 1026 l 124 79 l 185 79 b 235 142 210 79 233 96 "},"E":{"ha":289,"x_min":0,"x_max":0,"o":"m 38 0 l 38 1111 l 286 1111 l 286 1028 l 124 1028 l 124 603 l 267 603 l 267 519 l 124 519 l 124 83 l 288 83 l 288 0 "},"F":{"ha":288,"x_min":0,"x_max":0,"o":"m 124 1025 l 124 603 l 275 603 l 275 519 l 124 519 l 124 0 l 38 0 l 38 1111 l 286 1111 l 286 1025 "},"G":{"ha":335,"x_min":0,"x_max":0,"o":"m 254 0 l 250 39 b 164 -7 236 8 199 -7 b 33 138 88 -7 38 36 b 29 556 32 168 29 453 b 32 954 29 658 28 865 b 172 1118 35 1047 79 1118 b 307 979 271 1118 303 1046 b 307 765 308 926 307 765 l 222 765 b 222 953 222 765 222 875 b 172 1028 222 1010 204 1028 b 119 946 142 1028 119 1006 b 118 554 119 879 118 628 b 119 158 118 499 119 206 b 174 76 119 104 136 76 b 228 153 208 76 228 101 b 228 506 228 188 228 506 l 156 506 l 156 589 l 311 589 b 311 249 311 589 311 319 b 313 0 311 122 313 0 "},"H":{"ha":360,"x_min":0,"x_max":0,"o":"m 236 0 l 236 519 l 124 519 l 124 0 l 38 0 l 38 1111 l 124 1111 l 124 603 l 236 603 l 236 1111 l 322 1111 l 322 0 "},"I":{"ha":161,"x_min":0,"x_max":0,"o":"m 38 0 l 38 1111 l 125 1111 l 125 0 "},"J":{"ha":242,"x_min":0,"x_max":0,"o":"m 208 158 b 74 -1 208 44 169 -1 b 7 4 44 -1 29 0 l 7 86 b 60 85 25 85 38 83 b 119 157 110 85 119 113 l 119 1111 l 208 1111 l 208 158 "},"K":{"ha":349,"x_min":0,"x_max":0,"o":"m 263 0 l 146 503 l 124 433 l 124 0 l 38 0 l 38 1111 l 124 1111 l 124 622 l 265 1111 l 351 1111 l 207 624 l 356 0 "},"L":{"ha":296,"x_min":0,"x_max":0,"o":"m 38 0 l 38 1111 l 125 1111 l 125 83 l 290 83 l 290 0 "},"M":{"ha":490,"x_min":0,"x_max":0,"o":"m 375 0 l 375 768 l 281 0 l 206 0 l 117 767 l 117 0 l 38 0 l 38 1111 l 146 1111 l 244 278 l 349 1111 l 454 1111 l 454 0 "},"N":{"ha":358,"x_min":0,"x_max":0,"o":"m 224 0 l 115 721 l 115 0 l 38 0 l 38 1111 l 131 1111 l 242 325 l 242 1111 l 321 1111 l 321 0 "},"O":{"ha":356,"x_min":0,"x_max":0,"o":"m 178 1117 b 328 931 275 1117 324 1060 b 329 560 328 881 329 669 b 328 176 329 438 329 249 b 178 -8 324 54 279 -8 b 31 174 76 -8 33 50 b 29 558 29 204 29 439 b 31 926 29 661 29 889 b 178 1117 33 1054 76 1117 m 181 78 b 238 160 222 78 235 115 b 240 557 240 208 240 472 b 239 938 240 632 240 893 b 179 1029 238 1001 224 1029 b 119 936 129 1029 119 993 b 118 553 119 890 118 633 b 119 160 118 468 118 207 b 181 78 121 113 133 78 "},"P":{"ha":335,"x_min":0,"x_max":0,"o":"m 317 786 b 278 526 317 649 307 571 b 175 465 254 490 222 471 b 124 464 151 463 124 464 l 124 0 l 38 0 l 38 1111 l 178 1111 b 281 1049 226 1111 257 1089 b 317 786 303 1014 317 924 m 228 783 b 208 981 228 890 218 958 b 154 1025 193 1017 172 1025 l 124 1025 l 124 547 b 150 547 124 547 139 547 b 211 596 189 549 200 569 b 228 783 222 622 228 676 "},"Q":{"ha":356,"x_min":0,"x_max":0,"o":"m 271 25 b 300 -8 278 18 283 7 b 342 -44 318 -25 333 -39 l 290 -115 b 231 -57 276 -104 256 -83 b 185 0 210 -35 189 -7 b 143 3 172 0 157 0 b 31 181 76 18 32 58 b 29 558 31 206 29 456 b 31 926 29 661 31 904 b 178 1117 31 1043 75 1117 b 328 932 275 1117 324 1060 b 329 560 328 878 329 669 b 328 182 329 440 329 254 b 271 25 326 101 304 47 m 178 74 b 238 160 215 74 235 99 b 240 556 240 207 240 458 b 239 944 240 632 240 894 b 179 1029 238 1003 224 1029 b 119 939 129 1029 122 990 b 118 547 117 890 118 625 b 119 160 118 463 117 208 b 178 74 122 99 136 74 "},"R":{"ha":339,"x_min":0,"x_max":0,"o":"m 310 811 b 292 622 310 719 304 663 b 243 551 282 594 261 558 l 333 0 l 243 0 l 164 525 l 121 524 l 121 0 l 38 0 l 38 1111 l 169 1111 b 299 996 246 1111 282 1069 b 310 811 306 964 310 899 m 219 797 b 214 956 219 854 215 942 b 163 1028 211 997 193 1028 l 122 1028 b 122 606 122 1028 122 633 b 167 608 124 606 154 606 b 206 647 190 611 200 629 b 219 797 215 674 219 754 "},"S":{"ha":310,"x_min":0,"x_max":0,"o":"m 296 203 b 151 -8 296 47 243 -8 b 11 133 61 -8 11 43 l 11 290 l 92 290 l 92 150 b 147 71 92 92 114 71 b 206 188 185 71 206 96 b 142 499 206 313 190 390 b 89 608 129 525 104 578 b 6 924 32 721 6 800 b 153 1117 6 1049 60 1117 b 290 932 253 1117 289 1042 b 292 807 290 925 292 807 l 207 807 l 207 929 b 151 1032 207 994 196 1032 b 96 915 110 1032 96 1000 b 167 656 96 826 119 744 b 219 551 183 624 203 586 b 296 203 274 439 296 338 "},"T":{"ha":292,"x_min":0,"x_max":0,"o":"m 189 1028 l 189 0 l 101 0 l 101 1028 l 3 1028 l 3 1111 l 289 1111 l 289 1028 "},"U":{"ha":350,"x_min":0,"x_max":0,"o":"m 315 149 b 176 -8 315 50 269 -8 b 31 149 86 -8 31 43 b 31 1111 31 158 31 1111 l 117 1111 b 117 158 117 1111 117 196 b 175 76 117 94 136 76 b 229 157 215 76 229 99 b 229 1111 229 193 229 1111 l 315 1111 b 315 149 315 1111 315 158 "},"V":{"ha":333,"x_min":0,"x_max":0,"o":"m 217 0 l 113 0 l 0 1111 l 88 1111 l 167 196 l 244 1111 l 331 1111 "},"W":{"ha":535,"x_min":0,"x_max":0,"o":"m 439 0 l 336 0 b 265 888 336 0 267 742 b 194 0 264 742 194 0 l 93 0 l 0 1111 l 86 1111 b 147 178 86 1111 147 317 b 222 1111 147 317 222 1111 l 308 1111 b 383 178 308 1111 383 315 b 449 1111 383 315 449 1111 l 533 1111 "},"X":{"ha":343,"x_min":0,"x_max":0,"o":"m 93 0 l 1 0 l 126 593 l 15 1111 l 107 1111 l 178 738 l 247 1111 l 333 1111 l 221 567 l 342 0 l 251 0 l 171 419 "},"Y":{"ha":353,"x_min":0,"x_max":0,"o":"m 217 414 l 217 0 l 126 0 l 126 410 l 0 1111 l 88 1111 b 174 553 88 1111 172 611 b 264 1111 175 613 264 1111 l 353 1111 "},"Z":{"ha":290,"x_min":0,"x_max":0,"o":"m 4 0 l 4 78 l 196 1026 l 17 1026 l 17 1111 l 283 1111 l 283 1042 l 90 83 l 289 83 l 289 0 "},"[":{"ha":165,"x_min":0,"x_max":0,"o":"m 18 -222 l 18 1111 l 160 1111 l 160 1038 l 100 1038 l 100 -154 l 160 -154 l 160 -222 "},"\\":{"ha":181,"x_min":0,"x_max":0,"o":"m 61 1111 l 213 -222 l 156 -222 l 4 1111 "},"]":{"ha":165,"x_min":0,"x_max":0,"o":"m 6 -154 l 65 -154 l 65 1039 l 6 1039 l 6 1111 l 146 1111 l 146 -222 l 6 -222 "},"^":{"ha":428,"x_min":0,"x_max":0,"o":"m 67 819 l 15 875 l 168 1107 l 256 1107 l 410 875 l 357 819 l 210 1036 "},"_":{"ha":301,"x_min":0,"x_max":0,"o":"m 0 -150 l 0 -68 l 301 -68 l 301 -150 "},"`":{"ha":340,"x_min":0,"x_max":0,"o":"m 169 808 l 88 968 l 178 968 l 251 808 "},"a":{"ha":276,"x_min":0,"x_max":0,"o":"m 188 0 b 183 44 188 0 183 33 b 104 -4 165 11 140 -4 b 13 100 61 -4 15 18 b 13 260 11 144 11 204 b 115 438 15 350 42 403 b 181 461 142 450 164 457 b 181 635 181 490 181 600 b 144 693 181 672 169 693 b 106 631 124 693 106 678 b 106 504 106 597 106 563 l 31 504 b 32 650 29 565 31 604 b 147 771 35 722 72 771 b 258 643 231 771 258 719 b 257 328 258 558 257 401 b 256 86 257 246 256 132 b 261 0 256 50 258 13 m 181 383 b 156 378 175 383 165 382 b 117 347 138 371 124 358 b 92 249 100 322 92 293 b 92 139 92 226 92 160 b 132 71 92 89 103 71 b 178 147 158 71 175 90 b 181 303 179 172 181 249 b 181 383 181 319 181 367 "},"b":{"ha":289,"x_min":0,"x_max":0,"o":"m 179 771 b 264 665 229 771 260 742 b 267 397 267 608 267 504 b 265 117 267 286 267 157 b 175 -1 263 39 228 -1 b 103 32 138 -1 115 8 l 92 0 l 29 0 l 29 1111 l 104 1111 l 104 717 b 179 771 113 750 142 771 m 150 693 b 106 624 117 693 106 664 l 106 392 b 107 113 106 208 106 163 b 149 65 107 88 117 65 b 188 125 175 65 188 82 l 188 644 b 150 693 188 675 176 693 "},"c":{"ha":268,"x_min":0,"x_max":0,"o":"m 174 493 b 174 603 174 514 174 571 b 138 692 172 658 172 692 b 103 611 108 692 103 671 b 103 382 103 490 103 440 b 103 140 103 332 101 196 b 139 71 103 89 110 71 b 174 143 167 71 174 93 b 175 265 174 158 175 247 l 249 265 b 246 110 249 244 249 139 b 138 -7 238 32 207 -7 b 29 101 76 -7 36 24 b 24 382 26 157 24 290 b 28 644 24 464 25 583 b 139 771 32 724 65 771 b 244 658 215 771 240 724 b 249 493 247 625 249 506 "},"d":{"ha":285,"x_min":0,"x_max":0,"o":"m 122 769 b 185 731 154 769 175 757 l 185 1111 l 261 1111 b 261 82 261 1111 261 174 b 267 0 261 47 267 0 l 203 0 l 189 36 b 115 -4 175 8 153 -4 b 32 90 68 -4 38 21 b 25 372 26 149 25 257 b 29 667 25 492 26 625 b 122 769 33 736 72 769 m 142 692 b 103 633 115 692 103 675 b 101 371 101 582 101 458 b 103 117 101 286 103 167 b 140 67 103 86 114 67 b 183 136 174 67 183 96 b 185 371 185 213 185 286 b 185 644 185 553 185 592 b 142 692 185 668 174 692 "},"e":{"ha":271,"x_min":0,"x_max":0,"o":"m 254 228 b 250 104 254 225 253 132 b 140 -7 244 28 206 -7 b 31 92 81 -7 40 28 b 24 371 25 131 24 275 b 32 661 24 494 24 592 b 142 771 39 729 74 771 b 238 710 192 771 222 750 b 254 544 251 672 254 617 l 254 344 l 101 344 b 101 121 101 304 101 139 b 142 67 101 79 119 67 b 181 121 161 67 181 81 b 181 228 181 133 181 226 l 254 228 m 179 413 b 176 647 179 433 178 625 b 139 696 174 682 163 696 b 100 642 115 696 101 681 b 100 413 100 629 100 425 l 179 413 "},"f":{"ha":189,"x_min":0,"x_max":0,"o":"m 131 689 l 131 0 l 51 0 l 51 689 l 3 689 l 3 764 l 51 764 l 51 1007 b 150 1115 51 1074 82 1115 b 199 1111 178 1115 185 1114 l 199 1038 b 164 1038 188 1038 175 1038 b 131 999 143 1038 131 1024 l 131 764 l 188 764 l 188 689 "},"g":{"ha":300,"x_min":0,"x_max":0,"o":"m 146 774 b 235 731 196 774 225 751 b 310 767 250 757 274 767 l 310 706 l 251 706 b 267 599 263 685 267 633 b 264 356 267 569 267 403 b 149 221 260 257 217 221 b 94 236 122 221 107 226 b 65 197 75 231 65 215 b 167 142 65 165 89 156 b 308 -22 272 125 308 67 b 150 -175 308 -129 243 -175 b -4 -33 63 -175 -4 -136 b 65 96 -4 39 32 76 b -1 182 18 111 -1 142 b 57 260 -1 222 26 250 b 25 356 36 275 26 313 b 24 644 24 397 24 613 b 146 774 24 715 58 774 m 146 699 b 101 622 115 699 101 681 b 101 360 101 597 101 390 b 146 293 101 317 115 293 b 189 360 178 293 188 313 b 188 644 190 385 189 611 b 146 699 185 683 171 699 m 150 -114 b 238 -25 203 -114 238 -94 b 151 75 238 32 210 64 b 114 82 136 78 122 81 b 65 -24 81 58 65 32 b 150 -114 65 -83 96 -114 "},"h":{"ha":286,"x_min":0,"x_max":0,"o":"m 182 0 l 182 651 b 150 693 182 675 176 693 b 107 610 126 693 107 669 l 107 0 l 29 0 l 29 1111 l 107 1111 l 107 713 b 179 771 117 753 142 771 b 261 667 217 771 261 744 l 261 0 "},"i":{"ha":142,"x_min":0,"x_max":0,"o":"m 26 801 l 26 925 l 115 925 l 115 801 m 38 0 b 31 51 36 0 31 29 b 31 764 31 143 31 764 l 111 764 b 111 61 111 764 111 143 b 118 0 111 36 118 0 "},"j":{"ha":143,"x_min":0,"x_max":0,"o":"m 26 801 l 26 925 l 114 925 l 114 801 m 110 -139 b 7 -242 110 -207 71 -242 b -40 -237 -7 -242 -32 -240 l -40 -160 b -15 -160 -32 -160 -25 -160 b 31 -118 14 -160 31 -150 l 31 764 l 110 764 l 110 -139 "},"k":{"ha":281,"x_min":0,"x_max":0,"o":"m 203 0 l 126 361 l 107 311 l 107 0 l 29 0 l 29 1111 l 107 1111 l 107 454 l 204 764 l 279 764 l 185 457 l 281 0 "},"l":{"ha":132,"x_min":0,"x_max":0,"o":"m 33 0 b 28 43 29 4 28 24 b 28 1050 28 219 28 856 b 24 1111 28 1069 26 1103 l 104 1111 b 107 1071 104 1111 107 1089 b 107 57 107 913 107 299 b 110 0 107 22 108 6 "},"m":{"ha":431,"x_min":0,"x_max":0,"o":"m 326 646 b 297 692 326 667 322 692 b 257 629 268 692 257 653 l 257 0 l 179 0 l 179 649 b 150 692 179 674 174 692 b 107 618 122 692 107 656 l 107 0 l 29 0 l 29 764 l 106 764 l 106 707 b 182 772 113 746 139 772 b 250 707 221 772 240 744 b 326 772 261 750 290 772 b 404 667 386 772 404 725 l 404 0 l 326 0 "},"n":{"ha":286,"x_min":0,"x_max":0,"o":"m 183 0 b 182 649 182 0 182 7 b 149 689 182 675 171 689 b 107 596 124 689 107 668 l 107 0 l 29 0 l 29 764 l 104 764 l 104 700 b 182 771 111 753 149 771 b 260 667 236 771 260 733 b 261 0 260 8 260 0 "},"o":{"ha":286,"x_min":0,"x_max":0,"o":"m 263 381 b 261 122 263 303 263 176 b 143 -7 257 40 214 -7 b 25 117 64 -7 28 47 b 24 381 25 169 24 303 b 26 642 24 457 25 592 b 144 771 31 719 67 771 b 261 640 222 771 258 724 b 263 381 261 594 263 457 m 185 629 b 143 694 183 678 171 694 b 103 629 115 694 103 674 b 101 379 101 583 101 450 b 103 126 101 308 103 174 b 143 68 103 86 118 68 b 185 128 169 68 185 88 l 185 629 "},"p":{"ha":290,"x_min":0,"x_max":0,"o":"m 267 397 b 264 106 267 281 267 147 b 174 -1 260 36 225 -1 b 106 24 138 -1 118 10 l 106 -222 l 29 -222 l 29 764 l 103 764 l 103 721 b 178 771 115 756 147 771 b 263 674 226 771 257 746 b 267 397 265 617 267 510 m 188 643 b 150 693 188 674 176 693 b 106 624 117 693 106 663 l 106 118 b 149 72 106 94 117 72 b 188 131 175 72 188 88 l 188 643 "},"q":{"ha":285,"x_min":0,"x_max":0,"o":"m 190 -222 l 182 -208 l 182 33 b 118 -4 171 13 153 -4 b 29 103 58 -4 33 32 b 25 376 26 165 25 242 b 28 654 25 585 26 585 b 121 769 33 732 65 769 b 186 728 156 769 174 756 l 186 767 l 261 767 l 261 -106 b 267 -222 261 -167 267 -222 m 185 632 b 143 694 185 672 168 694 b 103 615 111 694 103 672 b 101 388 101 542 101 432 b 103 119 101 336 103 168 b 140 68 103 86 114 68 b 183 131 169 68 181 93 b 185 392 185 150 185 285 "},"r":{"ha":211,"x_min":0,"x_max":0,"o":"m 213 689 b 171 693 208 690 186 693 b 107 569 129 693 107 653 l 107 0 l 29 0 l 29 764 l 108 764 l 108 697 b 182 771 113 743 144 771 b 213 768 194 771 210 769 "},"s":{"ha":254,"x_min":0,"x_max":0,"o":"m 243 190 b 124 -7 243 54 206 -7 b 8 117 56 -7 10 28 b 7 229 7 146 7 196 l 81 229 b 81 126 81 222 81 165 b 122 67 81 79 97 67 b 167 190 151 67 167 90 b 101 361 167 271 136 315 b 11 615 58 418 11 479 b 125 772 11 706 46 772 b 232 661 197 772 226 728 b 235 528 235 642 235 543 l 161 528 b 161 636 161 535 161 629 b 124 694 161 674 153 694 b 86 607 99 694 86 671 b 165 410 86 510 125 463 b 243 190 204 358 243 303 "},"t":{"ha":203,"x_min":0,"x_max":0,"o":"m 125 692 b 124 118 125 532 124 244 b 158 72 124 76 140 72 b 188 74 168 72 178 74 l 188 1 b 126 -3 168 -1 149 -3 b 43 103 86 -3 43 21 b 43 692 43 256 43 490 l 3 692 l 3 764 l 43 764 l 46 874 l 124 879 l 124 764 l 189 764 l 189 692 "},"u":{"ha":290,"x_min":0,"x_max":0,"o":"m 186 0 l 183 33 b 113 -4 168 3 144 -4 b 28 115 64 -4 28 26 b 28 764 28 331 28 764 l 107 764 b 107 117 107 764 107 207 b 138 69 107 86 115 69 b 182 150 167 69 182 93 l 182 764 l 261 764 b 261 85 261 764 261 189 b 264 0 261 53 263 13 "},"v":{"ha":276,"x_min":0,"x_max":0,"o":"m 189 0 l 90 0 l 0 764 l 82 764 l 140 150 l 196 764 l 276 764 "},"w":{"ha":444,"x_min":0,"x_max":0,"o":"m 363 0 l 271 0 b 228 428 271 0 238 319 b 225 592 225 471 225 592 b 218 428 225 592 221 468 b 178 0 211 318 178 0 l 85 0 l 0 764 l 81 764 l 135 110 l 181 764 l 263 764 l 317 110 l 363 764 l 444 764 "},"x":{"ha":265,"x_min":0,"x_max":0,"o":"m 183 764 l 261 764 l 178 400 l 264 0 l 182 0 l 129 278 l 79 0 l 0 0 l 86 394 l 6 764 l 86 764 l 133 514 "},"y":{"ha":275,"x_min":0,"x_max":0,"o":"m 135 -222 l 53 -222 l 94 47 l 0 764 l 82 764 b 136 226 82 754 136 233 b 194 764 138 233 193 753 l 275 764 "},"z":{"ha":235,"x_min":0,"x_max":0,"o":"m 6 0 l 6 82 l 149 689 l 8 689 l 8 764 l 228 764 l 228 679 l 83 75 l 228 75 l 228 0 "},"{":{"ha":281,"x_min":0,"x_max":0,"o":"m 203 -224 b 81 -51 104 -224 81 -142 b 107 321 81 58 107 196 b 15 467 107 396 93 467 l 15 550 b 108 693 96 551 108 622 b 81 957 108 772 81 853 b 201 1110 81 1033 107 1110 l 267 1110 l 267 1031 b 160 926 186 1031 158 1017 b 188 681 160 878 188 753 b 96 508 188 606 175 518 b 188 328 178 499 188 400 b 160 -53 188 206 160 94 b 267 -143 158 -132 186 -143 l 267 -224 "},"|":{"ha":181,"x_min":0,"x_max":0,"o":"m 56 -278 l 56 1111 l 126 1111 l 126 -278 "},"}":{"ha":281,"x_min":0,"x_max":0,"o":"m 10 -143 b 118 -53 90 -143 118 -132 b 89 328 117 94 89 206 b 181 508 89 400 99 499 b 89 681 103 518 89 606 b 118 926 89 753 117 878 b 10 1031 118 1017 90 1031 l 10 1110 b 75 1110 10 1110 49 1110 b 196 957 169 1110 196 1033 b 168 693 196 853 168 772 b 261 550 168 622 181 551 l 261 467 b 169 321 183 467 169 396 b 196 -51 169 196 196 58 b 74 -224 196 -142 174 -224 b 10 -224 46 -224 10 -224 "},"~":{"ha":313,"x_min":0,"x_max":0,"o":"m 143 517 b 99 546 126 536 119 546 b 57 488 75 546 64 518 l 0 517 b 100 622 18 585 56 622 b 176 576 131 622 150 611 b 219 550 189 563 200 550 b 261 608 243 550 254 576 l 314 572 b 218 475 299 515 268 475 b 143 517 192 475 172 481 "},"Ä":{"ha":321,"x_min":0,"x_max":0,"o":"m 106 271 b 85 0 106 240 85 0 l 0 0 l 115 1111 l 231 1111 l 321 0 l 235 0 b 218 271 235 0 219 240 b 106 271 218 271 107 271 m 213 354 b 175 796 213 354 175 768 b 168 1008 175 824 168 1008 b 158 797 168 1008 160 825 b 114 354 156 758 114 354 l 213 354 m 200 1151 l 200 1276 l 274 1276 l 274 1151 m 61 1151 l 61 1276 l 133 1276 l 133 1151 "},"Å":{"ha":321,"x_min":0,"x_max":0,"o":"m 111 1065 b 69 1151 86 1085 69 1115 b 167 1256 69 1210 113 1256 b 267 1151 222 1256 267 1210 b 233 1072 267 1121 254 1092 l 321 0 l 235 0 b 218 271 235 0 219 240 b 106 271 218 271 107 271 b 85 0 106 240 85 0 l 0 0 l 111 1065 m 167 1199 b 124 1151 143 1199 124 1175 b 167 1106 124 1128 143 1106 b 211 1151 190 1106 211 1128 b 167 1199 211 1175 190 1199 m 213 354 b 175 796 213 354 175 768 b 168 1008 175 824 168 1008 b 158 797 168 1008 160 825 b 114 354 156 758 114 354 l 213 354 "},"Ç":{"ha":343,"x_min":0,"x_max":0,"o":"m 151 -7 b 33 147 75 4 39 60 b 29 564 29 243 29 461 b 31 939 29 667 31 900 b 190 1117 33 1072 92 1117 b 325 922 281 1117 324 1056 b 325 750 325 883 325 808 l 239 750 b 239 964 239 811 240 919 b 179 1029 238 1010 214 1029 b 119 953 142 1029 119 1001 b 118 564 118 904 118 646 b 121 174 118 468 119 204 b 182 78 125 97 147 78 b 242 181 213 78 242 93 b 242 360 242 251 242 342 l 326 360 b 326 171 326 328 326 203 b 199 -7 326 64 279 1 l 199 -36 b 297 -124 249 -36 297 -64 b 103 -246 297 -186 264 -246 l 103 -187 b 225 -129 200 -187 225 -171 b 151 -74 225 -97 207 -74 l 151 -7 "},"É":{"ha":289,"x_min":0,"x_max":0,"o":"m 38 0 l 38 1111 l 286 1111 l 286 1028 l 124 1028 l 124 603 l 267 603 l 267 519 l 124 519 l 124 83 l 288 83 l 288 0 m 163 1311 l 254 1311 l 169 1151 l 93 1151 "},"Ñ":{"ha":358,"x_min":0,"x_max":0,"o":"m 224 0 l 115 721 l 115 0 l 38 0 l 38 1111 l 131 1111 l 242 325 l 242 1111 l 321 1111 l 321 0 m 172 1185 b 135 1211 158 1203 151 1211 b 104 1157 118 1211 108 1192 l 46 1164 b 128 1281 51 1232 83 1281 b 194 1242 154 1281 172 1272 b 225 1221 203 1228 211 1221 b 257 1278 244 1221 253 1242 l 314 1271 b 233 1153 308 1199 281 1153 b 172 1185 211 1153 194 1156 "},"Ö":{"ha":356,"x_min":0,"x_max":0,"o":"m 178 1117 b 328 931 275 1117 324 1060 b 329 560 328 881 329 669 b 328 176 329 438 329 249 b 178 -8 324 54 279 -8 b 31 174 76 -8 33 50 b 29 558 29 204 29 439 b 31 926 29 661 29 889 b 178 1117 33 1054 76 1117 m 181 78 b 238 160 222 78 235 115 b 240 557 240 208 240 472 b 239 938 240 632 240 893 b 179 1029 238 1001 224 1029 b 119 936 129 1029 119 993 b 118 553 119 890 118 633 b 119 160 118 468 118 207 b 181 78 121 113 133 78 m 210 1151 l 210 1276 l 283 1276 l 283 1151 m 71 1151 l 71 1276 l 143 1276 l 143 1151 "},"Ü":{"ha":350,"x_min":0,"x_max":0,"o":"m 315 149 b 176 -8 315 50 269 -8 b 31 149 86 -8 31 43 b 31 1111 31 158 31 1111 l 117 1111 b 117 158 117 1111 117 196 b 175 76 117 94 136 76 b 229 157 215 76 229 99 b 229 1111 229 193 229 1111 l 315 1111 b 315 149 315 1111 315 158 m 207 1151 l 207 1276 l 281 1276 l 281 1151 m 68 1151 l 68 1276 l 140 1276 l 140 1151 "},"á":{"ha":276,"x_min":0,"x_max":0,"o":"m 188 0 b 183 44 188 0 183 33 b 104 -4 165 11 140 -4 b 13 100 61 -4 15 18 b 13 260 11 144 11 204 b 115 438 15 350 42 403 b 181 461 142 450 164 457 b 181 635 181 490 181 600 b 144 693 181 672 169 693 b 106 631 124 693 106 678 b 106 504 106 597 106 563 l 31 504 b 32 650 29 565 31 604 b 147 771 35 722 72 771 b 258 643 231 771 258 719 b 257 328 258 558 257 401 b 256 86 257 246 256 132 b 261 0 256 50 258 13 m 181 383 b 156 378 175 383 165 382 b 117 347 138 371 124 358 b 92 249 100 322 92 293 b 92 139 92 226 92 160 b 132 71 92 89 103 71 b 178 147 158 71 175 90 b 181 303 179 172 181 249 b 181 383 181 319 181 367 m 154 968 l 246 968 l 161 808 l 85 808 "},"à":{"ha":276,"x_min":0,"x_max":0,"o":"m 188 0 b 183 44 188 0 183 33 b 104 -4 165 11 140 -4 b 13 100 61 -4 15 18 b 13 260 11 144 11 204 b 115 438 15 350 42 403 b 181 461 142 450 164 457 b 181 635 181 490 181 600 b 144 693 181 672 169 693 b 106 631 124 693 106 678 b 106 504 106 597 106 563 l 31 504 b 32 650 29 565 31 604 b 147 771 35 722 72 771 b 258 643 231 771 258 719 b 257 328 258 558 257 401 b 256 86 257 246 256 132 b 261 0 256 50 258 13 m 181 383 b 156 378 175 383 165 382 b 117 347 138 371 124 358 b 92 249 100 322 92 293 b 92 139 92 226 92 160 b 132 71 92 89 103 71 b 178 147 158 71 175 90 b 181 303 179 172 181 249 b 181 383 181 319 181 367 m 138 808 l 56 968 l 146 968 l 219 808 "},"â":{"ha":276,"x_min":0,"x_max":0,"o":"m 188 0 b 183 44 188 0 183 33 b 104 -4 165 11 140 -4 b 13 100 61 -4 15 18 b 13 260 11 144 11 204 b 115 438 15 350 42 403 b 181 461 142 450 164 457 b 181 635 181 490 181 600 b 144 693 181 672 169 693 b 106 631 124 693 106 678 b 106 504 106 597 106 563 l 31 504 b 32 650 29 565 31 604 b 147 771 35 722 72 771 b 258 643 231 771 258 719 b 257 328 258 558 257 401 b 256 86 257 246 256 132 b 261 0 256 50 258 13 m 181 383 b 156 378 175 383 165 382 b 117 347 138 371 124 358 b 92 249 100 322 92 293 b 92 139 92 226 92 160 b 132 71 92 89 103 71 b 178 147 158 71 175 90 b 181 303 179 172 181 249 b 181 383 181 319 181 367 m 189 808 l 143 911 l 99 808 l 26 808 l 96 969 l 193 969 l 261 808 "},"ä":{"ha":276,"x_min":0,"x_max":0,"o":"m 188 0 b 183 44 188 0 183 33 b 104 -4 165 11 140 -4 b 13 100 61 -4 15 18 b 13 260 11 144 11 204 b 115 438 15 350 42 403 b 181 461 142 450 164 457 b 181 635 181 490 181 600 b 144 693 181 672 169 693 b 106 631 124 693 106 678 b 106 504 106 597 106 563 l 31 504 b 32 650 29 565 31 604 b 147 771 35 722 72 771 b 258 643 231 771 258 719 b 257 328 258 558 257 401 b 256 86 257 246 256 132 b 261 0 256 50 258 13 m 181 383 b 156 378 175 383 165 382 b 117 347 138 371 124 358 b 92 249 100 322 92 293 b 92 139 92 226 92 160 b 132 71 92 89 103 71 b 178 147 158 71 175 90 b 181 303 179 172 181 249 b 181 383 181 319 181 367 m 171 808 l 171 933 l 244 933 l 244 808 m 32 808 l 32 933 l 104 933 l 104 808 "},"ã":{"ha":276,"x_min":0,"x_max":0,"o":"m 188 0 b 183 44 188 0 183 33 b 104 -4 165 11 140 -4 b 13 100 61 -4 15 18 b 13 260 11 144 11 204 b 115 438 15 350 42 403 b 181 461 142 450 164 457 b 181 635 181 490 181 600 b 144 693 181 672 169 693 b 106 631 124 693 106 678 b 106 504 106 597 106 563 l 31 504 b 32 650 29 565 31 604 b 147 771 35 722 72 771 b 258 643 231 771 258 719 b 257 328 258 558 257 401 b 256 86 257 246 256 132 b 261 0 256 50 258 13 m 181 383 b 156 378 175 383 165 382 b 117 347 138 371 124 358 b 92 249 100 322 92 293 b 92 139 92 226 92 160 b 132 71 92 89 103 71 b 178 147 158 71 175 90 b 181 303 179 172 181 249 b 181 383 181 319 181 367 m 132 842 b 94 868 118 860 111 868 b 64 814 78 868 68 849 l 6 821 b 88 938 11 889 43 938 b 154 899 114 938 132 929 b 185 878 163 885 171 878 b 217 935 204 878 213 899 l 274 928 b 193 810 268 856 240 810 b 132 842 171 810 154 813 "},"å":{"ha":276,"x_min":0,"x_max":0,"o":"m 188 0 b 183 44 188 0 183 33 b 104 -4 165 11 140 -4 b 13 100 61 -4 15 18 b 13 260 11 144 11 204 b 115 438 15 350 42 403 b 181 461 142 450 164 457 b 181 635 181 490 181 600 b 144 693 181 672 169 693 b 106 631 124 693 106 678 b 106 504 106 597 106 563 l 31 504 b 32 650 29 565 31 604 b 147 771 35 722 72 771 b 258 643 231 771 258 719 b 257 328 258 558 257 401 b 256 86 257 246 256 132 b 261 0 256 50 258 13 m 181 383 b 156 378 175 383 165 382 b 117 347 138 371 124 358 b 92 249 100 322 92 293 b 92 139 92 226 92 160 b 132 71 92 89 103 71 b 178 147 158 71 175 90 b 181 303 179 172 181 249 b 181 383 181 319 181 367 m 143 1003 b 243 899 199 1003 243 957 b 143 793 243 840 199 793 b 46 899 89 793 46 840 b 143 1003 46 957 89 1003 m 143 946 b 100 899 119 946 100 922 b 143 853 100 875 119 853 b 188 899 167 853 188 875 b 143 946 188 922 167 946 "},"ç":{"ha":268,"x_min":0,"x_max":0,"o":"m 108 -4 b 29 101 64 4 35 38 b 24 382 26 157 24 290 b 28 644 24 464 25 583 b 139 771 32 724 65 771 b 244 658 215 771 240 724 b 249 493 247 625 249 506 l 174 493 b 174 603 174 514 174 571 b 138 692 172 658 172 692 b 103 611 108 692 103 671 b 103 382 103 490 103 440 b 103 140 103 332 101 196 b 139 71 103 89 110 71 b 174 143 167 71 174 93 b 175 265 174 158 175 247 l 249 265 b 246 110 249 244 249 139 b 156 -6 239 39 213 0 l 156 -29 b 254 -117 206 -29 254 -57 b 60 -239 254 -179 221 -239 l 60 -181 b 182 -122 157 -181 182 -164 b 108 -67 182 -90 164 -67 l 108 -4 "},"é":{"ha":271,"x_min":0,"x_max":0,"o":"m 254 228 b 250 104 254 225 253 132 b 140 -7 244 28 206 -7 b 31 92 81 -7 40 28 b 24 371 25 131 24 275 b 32 661 24 494 24 592 b 142 771 39 729 74 771 b 238 710 192 771 222 750 b 254 544 251 672 254 617 l 254 344 l 101 344 b 101 121 101 304 101 139 b 142 67 101 79 119 67 b 181 121 161 67 181 81 b 181 228 181 133 181 226 l 254 228 m 179 413 b 176 647 179 433 178 625 b 139 696 174 682 163 696 b 100 642 115 696 101 681 b 100 413 100 629 100 425 l 179 413 m 149 968 l 240 968 l 156 808 l 79 808 "},"è":{"ha":271,"x_min":0,"x_max":0,"o":"m 254 228 b 250 104 254 225 253 132 b 140 -7 244 28 206 -7 b 31 92 81 -7 40 28 b 24 371 25 131 24 275 b 32 661 24 494 24 592 b 142 771 39 729 74 771 b 238 710 192 771 222 750 b 254 544 251 672 254 617 l 254 344 l 101 344 b 101 121 101 304 101 139 b 142 67 101 79 119 67 b 181 121 161 67 181 81 b 181 228 181 133 181 226 l 254 228 m 179 413 b 176 647 179 433 178 625 b 139 696 174 682 163 696 b 100 642 115 696 101 681 b 100 413 100 629 100 425 l 179 413 m 114 808 l 32 968 l 122 968 l 196 808 "},"ê":{"ha":271,"x_min":0,"x_max":0,"o":"m 254 228 b 250 104 254 225 253 132 b 140 -7 244 28 206 -7 b 31 92 81 -7 40 28 b 24 371 25 131 24 275 b 32 661 24 494 24 592 b 142 771 39 729 74 771 b 238 710 192 771 222 750 b 254 544 251 672 254 617 l 254 344 l 101 344 b 101 121 101 304 101 139 b 142 67 101 79 119 67 b 181 121 161 67 181 81 b 181 228 181 133 181 226 l 254 228 m 179 413 b 176 647 179 433 178 625 b 139 696 174 682 163 696 b 100 642 115 696 101 681 b 100 413 100 629 100 425 l 179 413 m 181 808 l 135 911 l 90 808 l 18 808 l 88 969 l 185 969 l 253 808 "},"ë":{"ha":271,"x_min":0,"x_max":0,"o":"m 254 228 b 250 104 254 225 253 132 b 140 -7 244 28 206 -7 b 31 92 81 -7 40 28 b 24 371 25 131 24 275 b 32 661 24 494 24 592 b 142 771 39 729 74 771 b 238 710 192 771 222 750 b 254 544 251 672 254 617 l 254 344 l 101 344 b 101 121 101 304 101 139 b 142 67 101 79 119 67 b 181 121 161 67 181 81 b 181 228 181 133 181 226 l 254 228 m 179 413 b 176 647 179 433 178 625 b 139 696 174 682 163 696 b 100 642 115 696 101 681 b 100 413 100 629 100 425 l 179 413 m 168 808 l 168 933 l 242 933 l 242 808 m 29 808 l 29 933 l 101 933 l 101 808 "},"í":{"ha":142,"x_min":0,"x_max":0,"o":"m 38 0 b 31 51 36 0 31 29 b 31 764 31 143 31 764 l 111 764 b 111 61 111 764 111 143 b 118 0 111 36 118 0 m 86 968 l 178 968 l 93 808 l 17 808 "},"ì":{"ha":142,"x_min":0,"x_max":0,"o":"m 38 0 b 31 51 36 0 31 29 b 31 764 31 143 31 764 l 111 764 b 111 61 111 764 111 143 b 118 0 111 36 118 0 m 42 808 l -40 968 l 50 968 l 124 808 "},"î":{"ha":142,"x_min":0,"x_max":0,"o":"m 38 0 b 31 51 36 0 31 29 b 31 764 31 143 31 764 l 111 764 b 111 61 111 764 111 143 b 118 0 111 36 118 0 m 115 808 l 69 911 l 25 808 l -47 808 l 22 969 l 119 969 l 188 808 "},"ï":{"ha":142,"x_min":0,"x_max":0,"o":"m 38 0 b 31 51 36 0 31 29 b 31 764 31 143 31 764 l 111 764 b 111 61 111 764 111 143 b 118 0 111 36 118 0 m 103 808 l 103 933 l 176 933 l 176 808 m -36 808 l -36 933 l 36 933 l 36 808 "},"ñ":{"ha":286,"x_min":0,"x_max":0,"o":"m 183 0 b 182 649 182 0 182 7 b 149 689 182 675 171 689 b 107 596 124 689 107 668 l 107 0 l 29 0 l 29 764 l 104 764 l 104 700 b 182 771 111 753 149 771 b 260 667 236 771 260 733 b 261 0 260 8 260 0 m 132 842 b 94 868 118 860 111 868 b 64 814 78 868 68 849 l 6 821 b 88 938 11 889 43 938 b 154 899 114 938 132 929 b 185 878 163 885 171 878 b 217 935 204 878 213 899 l 274 928 b 193 810 268 856 240 810 b 132 842 171 810 154 813 "},"ó":{"ha":286,"x_min":0,"x_max":0,"o":"m 263 381 b 261 122 263 303 263 176 b 143 -7 257 40 214 -7 b 25 117 64 -7 28 47 b 24 381 25 169 24 303 b 26 642 24 457 25 592 b 144 771 31 719 67 771 b 261 640 222 771 258 724 b 263 381 261 594 263 457 m 185 629 b 143 694 183 678 171 694 b 103 629 115 694 103 674 b 101 379 101 583 101 450 b 103 126 101 308 103 174 b 143 68 103 86 118 68 b 185 128 169 68 185 88 l 185 629 m 157 968 l 249 968 l 164 808 l 88 808 "},"ò":{"ha":286,"x_min":0,"x_max":0,"o":"m 263 381 b 261 122 263 303 263 176 b 143 -7 257 40 214 -7 b 25 117 64 -7 28 47 b 24 381 25 169 24 303 b 26 642 24 457 25 592 b 144 771 31 719 67 771 b 261 640 222 771 258 724 b 263 381 261 594 263 457 m 185 629 b 143 694 183 678 171 694 b 103 629 115 694 103 674 b 101 379 101 583 101 450 b 103 126 101 308 103 174 b 143 68 103 86 118 68 b 185 128 169 68 185 88 l 185 629 m 110 808 l 28 968 l 118 968 l 192 808 "},"ô":{"ha":286,"x_min":0,"x_max":0,"o":"m 263 381 b 261 122 263 303 263 176 b 143 -7 257 40 214 -7 b 25 117 64 -7 28 47 b 24 381 25 169 24 303 b 26 642 24 457 25 592 b 144 771 31 719 67 771 b 261 640 222 771 258 724 b 263 381 261 594 263 457 m 185 629 b 143 694 183 678 171 694 b 103 629 115 694 103 674 b 101 379 101 583 101 450 b 103 126 101 308 103 174 b 143 68 103 86 118 68 b 185 128 169 68 185 88 l 185 629 m 188 808 l 142 911 l 97 808 l 25 808 l 94 969 l 192 969 l 260 808 "},"ö":{"ha":286,"x_min":0,"x_max":0,"o":"m 263 381 b 261 122 263 303 263 176 b 143 -7 257 40 214 -7 b 25 117 64 -7 28 47 b 24 381 25 169 24 303 b 26 642 24 457 25 592 b 144 771 31 719 67 771 b 261 640 222 771 258 724 b 263 381 261 594 263 457 m 185 629 b 143 694 183 678 171 694 b 103 629 115 694 103 674 b 101 379 101 583 101 450 b 103 126 101 308 103 174 b 143 68 103 86 118 68 b 185 128 169 68 185 88 l 185 629 m 175 808 l 175 933 l 249 933 l 249 808 m 36 808 l 36 933 l 108 933 l 108 808 "},"õ":{"ha":286,"x_min":0,"x_max":0,"o":"m 263 381 b 261 122 263 303 263 176 b 143 -7 257 40 214 -7 b 25 117 64 -7 28 47 b 24 381 25 169 24 303 b 26 642 24 457 25 592 b 144 771 31 719 67 771 b 261 640 222 771 258 724 b 263 381 261 594 263 457 m 185 629 b 143 694 183 678 171 694 b 103 629 115 694 103 674 b 101 379 101 583 101 450 b 103 126 101 308 103 174 b 143 68 103 86 118 68 b 185 128 169 68 185 88 l 185 629 m 136 842 b 99 868 122 860 115 868 b 68 814 82 868 72 849 l 10 821 b 92 938 15 889 47 938 b 158 899 118 938 136 929 b 189 878 167 885 175 878 b 221 935 208 878 217 899 l 278 928 b 197 810 272 856 244 810 b 136 842 175 810 158 813 "},"ú":{"ha":290,"x_min":0,"x_max":0,"o":"m 186 0 l 183 33 b 113 -4 168 3 144 -4 b 28 115 64 -4 28 26 b 28 764 28 331 28 764 l 107 764 b 107 117 107 764 107 207 b 138 69 107 86 115 69 b 182 150 167 69 182 93 l 182 764 l 261 764 b 261 85 261 764 261 189 b 264 0 261 53 263 13 m 154 968 l 246 968 l 161 808 l 85 808 "},"ù":{"ha":290,"x_min":0,"x_max":0,"o":"m 186 0 l 183 33 b 113 -4 168 3 144 -4 b 28 115 64 -4 28 26 b 28 764 28 331 28 764 l 107 764 b 107 117 107 764 107 207 b 138 69 107 86 115 69 b 182 150 167 69 182 93 l 182 764 l 261 764 b 261 85 261 764 261 189 b 264 0 261 53 263 13 m 144 808 l 63 968 l 153 968 l 226 808 "},"û":{"ha":290,"x_min":0,"x_max":0,"o":"m 186 0 l 183 33 b 113 -4 168 3 144 -4 b 28 115 64 -4 28 26 b 28 764 28 331 28 764 l 107 764 b 107 117 107 764 107 207 b 138 69 107 86 115 69 b 182 150 167 69 182 93 l 182 764 l 261 764 b 261 85 261 764 261 189 b 264 0 261 53 263 13 m 190 808 l 144 911 l 100 808 l 28 808 l 97 969 l 194 969 l 263 808 "},"ü":{"ha":290,"x_min":0,"x_max":0,"o":"m 186 0 l 183 33 b 113 -4 168 3 144 -4 b 28 115 64 -4 28 26 b 28 764 28 331 28 764 l 107 764 b 107 117 107 764 107 207 b 138 69 107 86 115 69 b 182 150 167 69 182 93 l 182 764 l 261 764 b 261 85 261 764 261 189 b 264 0 261 53 263 13 m 178 808 l 178 933 l 251 933 l 251 808 m 39 808 l 39 933 l 111 933 l 111 808 "},"†":{"ha":213,"x_min":0,"x_max":0,"o":"m 146 667 b 146 -14 146 635 146 -14 l 107 -125 l 68 -14 b 68 667 68 -14 68 628 l 18 667 l 18 736 l 68 736 b 67 1101 61 811 67 1101 l 147 1101 b 146 736 147 1101 153 813 l 194 736 l 194 667 "},"°":{"ha":236,"x_min":0,"x_max":0,"o":"m 118 1038 b 229 921 181 1038 229 985 b 118 804 229 856 181 804 b 8 921 58 804 8 856 b 118 1038 8 985 58 1038 m 118 976 b 64 921 88 976 64 951 b 118 865 64 889 88 865 b 174 921 150 865 174 889 b 118 976 174 951 150 976 "},"¢":{"ha":293,"x_min":0,"x_max":0,"o":"m 124 1014 l 176 1014 l 176 919 b 267 807 236 911 261 867 b 271 653 268 772 271 667 l 196 653 b 196 758 196 674 196 726 b 154 849 196 815 189 849 b 114 767 126 849 114 828 b 113 542 114 643 113 601 b 114 303 113 490 114 360 b 156 231 114 247 128 231 b 197 304 183 231 197 254 b 197 425 197 321 197 407 l 271 425 b 265 279 271 403 271 310 b 176 164 260 210 231 172 l 176 63 l 124 63 l 124 165 b 39 271 76 174 44 204 b 38 542 35 328 38 449 b 39 793 38 625 35 696 b 124 918 43 861 69 906 "},"£":{"ha":289,"x_min":0,"x_max":0,"o":"m 90 532 b 29 829 64 622 29 735 b 29 978 29 865 29 946 b 153 1117 29 1069 68 1117 b 275 974 250 1117 275 1053 b 275 710 275 954 275 729 l 200 710 b 200 961 200 738 200 944 b 153 1039 200 1024 185 1038 b 108 968 119 1039 108 1021 b 108 828 108 950 108 853 b 167 532 107 725 139 624 l 272 532 l 272 454 l 185 454 b 203 328 196 407 204 364 b 94 82 201 181 136 104 l 281 82 l 281 0 l 13 0 l 13 88 b 128 328 71 124 124 213 b 108 454 129 358 121 403 l 31 454 l 31 532 l 90 532 "},"§":{"ha":267,"x_min":0,"x_max":0,"o":"m 21 619 b 88 760 25 710 61 744 b 29 888 49 789 31 829 b 29 986 29 900 29 972 b 135 1114 32 1071 74 1114 b 243 985 194 1114 240 1078 b 243 885 243 981 243 889 l 182 885 b 182 981 182 886 182 981 b 140 1053 182 1019 174 1053 b 93 976 110 1053 94 1033 b 93 890 93 967 93 899 b 139 793 93 840 108 819 b 188 750 147 785 174 763 b 249 624 229 713 246 668 b 249 517 251 600 251 542 b 178 378 246 428 208 393 b 250 235 224 343 249 299 b 250 124 250 222 250 139 b 140 -12 247 31 206 -12 b 28 122 78 -12 31 25 b 28 225 28 126 28 219 l 94 224 b 94 126 94 224 94 128 b 138 53 94 85 104 53 b 186 133 168 53 186 72 b 186 232 186 143 186 222 b 138 332 185 283 167 306 b 78 388 128 342 94 372 b 21 517 39 425 24 468 b 21 619 18 543 18 599 m 85 524 b 140 424 85 481 111 450 b 188 526 164 425 186 472 b 188 610 189 542 189 594 b 135 708 186 654 169 681 b 85 610 111 708 86 664 b 85 524 83 590 83 546 "},"•":{"ha":411,"x_min":0,"x_max":0,"o":"m 207 344 b 51 507 122 344 51 419 b 207 668 51 596 122 668 b 361 507 290 668 361 596 b 207 344 361 419 290 344 "},"¶":{"ha":317,"x_min":0,"x_max":0,"o":"m 297 -139 l 254 -139 l 254 1039 l 228 1039 l 228 -139 l 181 -139 l 181 365 b 107 324 167 340 144 324 b 15 432 47 324 18 361 b 13 711 13 496 13 582 b 15 1001 13 917 13 933 b 107 1114 18 1072 53 1114 b 185 1067 143 1114 172 1099 l 203 1110 l 297 1110 m 183 968 b 140 1035 183 1015 167 1035 b 100 956 110 1035 100 1015 b 100 721 99 881 100 764 l 100 450 b 138 397 100 415 114 397 b 182 464 168 397 179 421 b 183 729 183 485 183 619 "},"ß":{"ha":431,"x_min":0,"x_max":0,"o":"m 190 1038 b 132 947 147 1038 132 1007 l 132 0 l 51 0 l 51 686 l 3 686 l 3 764 l 51 764 l 51 947 b 194 1115 51 1065 110 1115 b 329 957 275 1115 329 1060 b 242 631 329 835 242 774 b 293 461 242 536 267 506 b 344 397 307 442 326 418 b 414 175 392 343 414 285 b 289 -7 414 56 378 -7 b 168 118 215 -7 169 26 b 167 233 168 147 167 200 l 247 233 b 247 121 247 225 247 161 b 289 60 247 71 264 60 b 333 168 317 60 333 82 b 292 338 333 250 322 299 b 239 404 275 356 258 379 b 165 629 200 447 165 506 b 246 938 165 768 246 840 b 190 1038 246 1004 236 1038 "},"®":{"ha":468,"x_min":0,"x_max":0,"o":"m 449 664 b 236 390 449 469 369 390 b 19 664 103 390 19 468 l 19 864 b 233 1113 19 1053 110 1113 b 449 864 357 1113 449 1056 l 449 664 m 407 876 b 233 1065 407 1013 339 1065 b 60 876 129 1065 60 1010 l 60 688 b 233 435 60 497 132 435 b 407 688 349 435 407 494 m 279 525 l 228 704 l 188 704 l 188 525 l 129 525 l 129 942 l 240 942 b 338 817 311 942 338 900 b 283 713 338 756 314 719 l 338 525 m 283 818 b 239 889 283 853 281 889 l 188 889 l 188 753 l 247 753 b 283 818 274 753 283 782 "},"©":{"ha":468,"x_min":0,"x_max":0,"o":"m 449 664 b 236 390 449 469 369 390 b 19 664 103 390 19 468 l 19 864 b 233 1113 19 1053 110 1113 b 449 864 357 1113 449 1056 l 449 664 m 407 876 b 233 1065 407 1013 339 1065 b 60 876 129 1065 60 1010 l 60 688 b 233 435 60 496 129 435 b 407 688 349 435 407 490 m 319 601 b 231 514 319 549 275 514 b 146 596 179 514 146 549 l 146 868 b 239 956 146 933 188 956 b 319 861 288 956 319 917 l 319 781 l 263 781 b 263 861 263 810 264 842 b 235 899 261 886 251 899 b 204 854 213 899 204 885 l 204 729 b 206 621 204 690 206 636 b 235 567 206 581 215 567 b 264 625 253 567 264 578 l 264 693 l 319 693 "},"™":{"ha":554,"x_min":0,"x_max":0,"o":"m 478 1003 b 446 1050 478 1025 474 1050 b 406 983 417 1050 406 1010 l 406 725 l 344 725 l 344 1006 b 313 1050 344 1032 339 1050 b 269 971 285 1050 269 1014 l 269 725 l 207 725 l 207 1111 l 268 1111 l 268 1051 b 338 1118 274 1093 299 1118 b 399 1056 374 1118 392 1089 b 469 1118 407 1099 435 1118 b 539 1024 526 1118 539 1069 l 539 725 l 478 725 m 114 1046 l 114 829 b 147 786 115 796 131 786 b 174 788 157 786 167 786 l 174 726 b 122 724 157 724 140 724 b 50 808 83 724 50 746 l 50 1046 l 3 1046 l 3 1111 l 179 1111 l 179 1046 "},"´":{"ha":340,"x_min":0,"x_max":0,"o":"m 179 968 l 271 968 l 186 808 l 110 808 "},"¨":{"ha":340,"x_min":0,"x_max":0,"o":"m 203 808 l 203 933 l 276 933 l 276 808 m 64 808 l 64 933 l 136 933 l 136 808 "},"≠":{"ha":304,"x_min":0,"x_max":0,"o":"m 156 440 l 142 378 l 86 378 l 100 440 l 14 440 l 14 508 l 115 508 l 136 601 l 14 601 l 14 669 l 151 669 l 167 736 l 222 736 l 207 669 l 293 669 l 293 601 l 193 601 l 171 508 l 293 508 l 293 440 "},"Æ":{"ha":414,"x_min":0,"x_max":0,"o":"m 415 1022 l 260 1022 l 260 604 l 392 604 l 392 518 l 260 518 l 260 89 l 413 89 l 413 0 l 176 0 l 176 264 l 108 264 l 86 0 l 1 0 l 117 1111 l 415 1111 m 175 993 b 161 835 175 993 161 840 l 111 346 l 175 346 l 175 993 "},"Ø":{"ha":356,"x_min":0,"x_max":0,"o":"m 271 1088 b 326 931 307 1060 324 1008 b 328 560 326 881 328 669 b 326 176 328 440 328 249 b 178 -8 322 54 279 -8 b 122 -1 156 -8 139 -7 b 114 -47 119 -11 114 -47 l 76 -47 l 86 15 b 31 174 49 44 32 97 b 29 558 29 204 29 456 b 31 926 29 661 29 904 b 178 1117 32 1044 75 1117 b 236 1107 200 1117 218 1114 l 239 1129 l 278 1129 b 271 1088 278 1129 271 1089 m 213 1004 b 183 1032 206 1018 196 1029 b 119 957 132 1043 126 1007 b 114 611 114 917 115 690 b 114 211 114 528 113 272 b 119 169 115 196 117 182 m 144 97 b 176 68 153 83 163 72 b 238 142 218 63 232 97 b 246 494 243 181 246 406 b 244 875 246 569 246 818 b 238 938 244 900 243 921 "},"∞":{"ha":425,"x_min":0,"x_max":0,"o":"m 381 517 b 286 390 381 432 351 390 b 211 431 246 390 225 407 b 139 390 199 407 178 390 b 44 518 65 390 44 442 b 138 646 44 597 68 646 b 211 610 176 646 199 631 b 288 646 225 631 247 646 b 381 517 360 646 381 594 m 325 518 b 285 599 325 572 318 599 b 233 526 247 599 239 565 b 283 438 239 481 242 438 b 325 518 314 438 325 454 m 142 438 b 189 526 181 438 183 479 b 140 599 182 565 174 599 b 100 518 110 599 100 579 b 142 438 100 456 107 438 "},"±":{"ha":306,"x_min":0,"x_max":0,"o":"m 188 563 l 188 472 l 118 472 l 118 563 l 4 563 l 4 626 l 118 626 l 118 726 l 188 726 l 188 626 l 300 626 l 300 563 m 8 382 l 8 446 l 297 446 l 297 382 "},"≤":{"ha":306,"x_min":0,"x_max":0,"o":"m 8 564 l 8 628 l 294 735 l 294 669 l 86 596 l 294 533 l 294 468 m 8 382 l 8 446 l 297 446 l 297 382 "},"≥":{"ha":306,"x_min":0,"x_max":0,"o":"m 11 468 l 11 533 l 218 596 l 11 669 l 11 735 l 297 628 l 297 564 m 8 382 l 8 446 l 297 446 l 297 382 "},"¥":{"ha":363,"x_min":0,"x_max":0,"o":"m 19 292 l 19 357 l 125 357 l 125 418 l 0 1111 l 85 1111 b 169 561 85 1111 168 618 b 263 1111 171 621 263 1111 l 353 1111 l 215 422 l 215 357 l 328 357 l 328 292 l 215 292 l 215 235 l 328 235 l 328 169 l 215 169 l 215 0 l 125 0 l 125 169 l 19 169 l 19 235 l 125 235 l 125 292 "},"∂":{"ha":407,"x_min":0,"x_max":0,"o":"m 181 1024 l 7 1024 l 7 1104 l 400 1104 l 400 1024 l 222 1024 l 222 710 b 354 558 296 699 354 635 b 221 408 354 482 296 418 l 221 96 l 400 96 l 400 7 l 7 7 l 7 96 l 179 96 l 179 408 b 49 558 106 419 49 482 b 181 710 49 635 107 699 m 222 611 l 200 564 l 181 611 l 181 676 b 82 558 125 665 82 617 b 179 442 82 500 124 453 l 179 507 l 200 553 l 221 507 l 221 442 b 321 558 276 451 321 500 b 222 676 321 617 278 665 m 204 561 b 247 617 218 579 238 601 b 275 579 274 654 314 586 b 204 561 258 576 226 568 m 196 561 b 125 579 174 568 142 576 b 153 617 86 586 126 654 b 196 561 163 601 182 579 m 204 556 b 275 538 226 549 258 540 b 247 500 314 531 274 463 b 204 556 238 515 218 538 m 196 556 b 153 500 182 538 163 515 b 125 538 126 463 86 531 b 196 556 142 540 174 549 "},"∑":{"ha":407,"x_min":0,"x_max":0,"o":"m 181 1024 l 7 1024 l 7 1104 l 400 1104 l 400 1024 l 222 1024 l 222 710 b 354 558 296 699 354 635 b 221 408 354 482 296 418 l 221 96 l 400 96 l 400 7 l 7 7 l 7 96 l 179 96 l 179 408 b 49 558 106 419 49 482 b 181 710 49 635 107 699 m 222 611 l 200 564 l 181 611 l 181 676 b 82 558 125 665 82 617 b 179 442 82 500 124 453 l 179 507 l 200 553 l 221 507 l 221 442 b 321 558 276 451 321 500 b 222 676 321 617 278 665 m 204 561 b 247 617 218 579 238 601 b 275 579 274 654 314 586 b 204 561 258 576 226 568 m 196 561 b 125 579 174 568 142 576 b 153 617 86 586 126 654 b 196 561 163 601 182 579 m 204 556 b 275 538 226 549 258 540 b 247 500 314 531 274 463 b 204 556 238 515 218 538 m 196 556 b 153 500 182 538 163 515 b 125 538 126 463 86 531 b 196 556 142 540 174 549 "},"∏":{"ha":407,"x_min":0,"x_max":0,"o":"m 181 1024 l 7 1024 l 7 1104 l 400 1104 l 400 1024 l 222 1024 l 222 710 b 354 558 296 699 354 635 b 221 408 354 482 296 418 l 221 96 l 400 96 l 400 7 l 7 7 l 7 96 l 179 96 l 179 408 b 49 558 106 419 49 482 b 181 710 49 635 107 699 m 222 611 l 200 564 l 181 611 l 181 676 b 82 558 125 665 82 617 b 179 442 82 500 124 453 l 179 507 l 200 553 l 221 507 l 221 442 b 321 558 276 451 321 500 b 222 676 321 617 278 665 m 204 561 b 247 617 218 579 238 601 b 275 579 274 654 314 586 b 204 561 258 576 226 568 m 196 561 b 125 579 174 568 142 576 b 153 617 86 586 126 654 b 196 561 163 601 182 579 m 204 556 b 275 538 226 549 258 540 b 247 500 314 531 274 463 b 204 556 238 515 218 538 m 196 556 b 153 500 182 538 163 515 b 125 538 126 463 86 531 b 196 556 142 540 174 549 "},"π":{"ha":468,"x_min":0,"x_max":0,"o":"m 449 664 b 236 390 449 469 369 390 b 19 664 103 390 19 468 l 19 864 b 233 1113 19 1053 110 1113 b 449 864 357 1113 449 1056 l 449 664 m 407 876 b 233 1065 407 1013 339 1065 b 60 876 129 1065 60 1010 l 60 688 b 233 435 60 497 132 435 b 407 688 349 435 407 494 m 199 525 l 142 525 l 142 942 l 253 942 b 329 914 299 942 317 929 b 356 819 349 893 356 836 b 338 722 356 790 353 746 b 274 692 326 704 299 692 l 199 692 m 289 760 b 297 814 296 771 297 794 b 286 865 297 829 293 853 b 246 888 278 882 269 888 l 199 888 l 199 744 l 256 744 b 289 760 275 744 282 749 "},"∫":{"ha":407,"x_min":0,"x_max":0,"o":"m 181 1024 l 7 1024 l 7 1104 l 400 1104 l 400 1024 l 222 1024 l 222 710 b 354 558 296 699 354 635 b 221 408 354 482 296 418 l 221 96 l 400 96 l 400 7 l 7 7 l 7 96 l 179 96 l 179 408 b 49 558 106 419 49 482 b 181 710 49 635 107 699 m 222 611 l 200 564 l 181 611 l 181 676 b 82 558 125 665 82 617 b 179 442 82 500 124 453 l 179 507 l 200 553 l 221 507 l 221 442 b 321 558 276 451 321 500 b 222 676 321 617 278 665 m 204 561 b 247 617 218 579 238 601 b 275 579 274 654 314 586 b 204 561 258 576 226 568 m 196 561 b 125 579 174 568 142 576 b 153 617 86 586 126 654 b 196 561 163 601 182 579 m 204 556 b 275 538 226 549 258 540 b 247 500 314 531 274 463 b 204 556 238 515 218 538 m 196 556 b 153 500 182 538 163 515 b 125 538 126 463 86 531 b 196 556 142 540 174 549 "},"ª":{"ha":301,"x_min":0,"x_max":0,"o":"m 193 404 b 189 449 193 404 189 438 b 110 403 171 415 146 403 b 19 504 74 403 21 422 b 19 631 18 525 18 576 b 186 832 21 749 90 808 b 188 976 186 860 188 942 b 150 1035 188 1014 175 1035 b 111 974 129 1035 111 1021 b 111 861 111 939 111 919 l 36 861 b 38 989 35 922 36 943 b 153 1110 40 1063 78 1110 b 264 982 236 1110 264 1058 b 263 699 264 897 264 772 b 263 490 263 617 263 536 b 267 404 263 454 264 417 m 17 288 l 17 367 l 281 367 l 281 288 m 186 761 b 122 725 156 757 143 750 b 94 619 101 700 96 664 b 94 543 94 597 94 565 b 135 468 94 492 103 468 b 185 551 164 468 183 496 b 186 672 186 583 186 619 b 186 761 188 690 186 744 "},"º":{"ha":288,"x_min":0,"x_max":0,"o":"m 263 763 b 261 529 263 683 263 583 b 143 400 257 447 214 400 b 25 524 64 400 28 454 b 24 763 25 576 24 683 b 26 981 24 838 25 931 b 144 1111 31 1057 67 1111 b 261 979 222 1111 258 1063 b 263 763 261 933 263 838 m 185 968 b 143 1033 183 1017 171 1033 b 103 968 115 1033 103 1013 b 101 760 101 922 101 832 b 103 532 101 689 103 581 b 143 474 103 493 118 474 b 185 533 169 474 185 494 l 185 968 m 17 288 l 17 367 l 281 367 l 281 288 "},"Ω":{"ha":407,"x_min":0,"x_max":0,"o":"m 181 1024 l 7 1024 l 7 1104 l 400 1104 l 400 1024 l 222 1024 l 222 710 b 354 558 296 699 354 635 b 221 408 354 482 296 418 l 221 96 l 400 96 l 400 7 l 7 7 l 7 96 l 179 96 l 179 408 b 49 558 106 419 49 482 b 181 710 49 635 107 699 m 222 611 l 200 564 l 181 611 l 181 676 b 82 558 125 665 82 617 b 179 442 82 500 124 453 l 179 507 l 200 553 l 221 507 l 221 442 b 321 558 276 451 321 500 b 222 676 321 617 278 665 m 204 561 b 247 617 218 579 238 601 b 275 579 274 654 314 586 b 204 561 258 576 226 568 m 196 561 b 125 579 174 568 142 576 b 153 617 86 586 126 654 b 196 561 163 601 182 579 m 204 556 b 275 538 226 549 258 540 b 247 500 314 531 274 463 b 204 556 238 515 218 538 m 196 556 b 153 500 182 538 163 515 b 125 538 126 463 86 531 b 196 556 142 540 174 549 "},"æ":{"ha":426,"x_min":0,"x_max":0,"o":"m 201 51 b 107 -4 188 17 150 -4 b 13 100 61 -4 15 18 l 13 260 b 115 438 15 350 51 408 b 181 460 135 449 157 456 l 181 639 b 144 697 181 676 169 697 b 106 635 124 697 106 682 l 106 490 l 31 490 b 32 651 29 551 31 606 b 147 772 35 724 72 772 b 228 736 190 772 215 756 b 299 771 238 757 264 771 b 404 682 364 771 401 725 b 410 344 410 657 410 567 l 257 344 l 257 121 b 297 67 257 79 276 67 b 336 121 318 67 336 81 l 336 228 l 410 228 b 403 104 410 225 410 132 b 297 -7 399 28 361 -7 b 201 51 238 -7 213 21 m 181 396 b 154 386 171 392 163 390 b 114 350 140 379 126 369 b 92 240 93 325 92 286 l 92 131 b 133 69 92 90 103 69 b 181 150 164 69 181 93 l 181 396 m 335 647 b 294 696 335 682 315 696 b 257 646 275 696 258 682 l 257 404 l 335 404 "},"ø":{"ha":286,"x_min":0,"x_max":0,"o":"m 81 8 b 25 117 44 28 26 68 b 24 381 25 169 24 303 b 26 642 24 457 25 592 b 144 771 31 719 67 771 b 179 767 157 771 169 769 l 183 796 l 215 796 l 208 756 b 261 640 242 735 258 694 b 263 381 261 594 263 457 b 261 122 263 303 263 176 b 143 -7 257 40 214 -7 b 110 -1 131 -7 119 -6 l 106 -35 l 74 -35 l 81 8 m 161 692 b 147 694 157 694 151 694 b 101 642 122 699 104 682 b 97 407 99 597 99 474 b 97 147 97 342 97 199 b 106 110 97 133 100 119 m 128 72 b 139 68 131 71 136 69 b 185 114 163 64 182 79 b 189 353 188 156 189 286 b 189 607 189 421 189 560 b 183 647 189 622 188 638 "},"¿":{"ha":300,"x_min":0,"x_max":0,"o":"m 210 1111 l 210 942 l 122 942 l 122 1111 m 28 279 b 133 871 29 450 142 550 l 203 871 b 110 260 215 521 110 465 b 110 156 110 232 110 182 b 156 74 110 103 124 74 b 206 150 190 74 206 103 b 206 263 206 165 206 250 l 282 263 b 282 133 282 215 282 150 b 151 -6 282 44 232 -6 b 28 142 75 -6 32 39 b 28 279 26 183 28 246 "},"¡":{"ha":181,"x_min":0,"x_max":0,"o":"m 133 1111 l 133 942 l 49 942 l 49 1111 m 57 871 l 125 871 l 133 0 l 50 0 "},"¬":{"ha":407,"x_min":0,"x_max":0,"o":"m 181 1024 l 7 1024 l 7 1104 l 400 1104 l 400 1024 l 222 1024 l 222 710 b 354 558 296 699 354 635 b 221 408 354 482 296 418 l 221 96 l 400 96 l 400 7 l 7 7 l 7 96 l 179 96 l 179 408 b 49 558 106 419 49 482 b 181 710 49 635 107 699 m 222 611 l 200 564 l 181 611 l 181 676 b 82 558 125 665 82 617 b 179 442 82 500 124 453 l 179 507 l 200 553 l 221 507 l 221 442 b 321 558 276 451 321 500 b 222 676 321 617 278 665 m 204 561 b 247 617 218 579 238 601 b 275 579 274 654 314 586 b 204 561 258 576 226 568 m 196 561 b 125 579 174 568 142 576 b 153 617 86 586 126 654 b 196 561 163 601 182 579 m 204 556 b 275 538 226 549 258 540 b 247 500 314 531 274 463 b 204 556 238 515 218 538 m 196 556 b 153 500 182 538 163 515 b 125 538 126 463 86 531 b 196 556 142 540 174 549 "},"√":{"ha":428,"x_min":0,"x_max":0,"o":"m 246 -8 l 117 -8 l 19 447 l 94 447 l 176 72 l 325 1113 l 410 1113 "},"ƒ":{"ha":296,"x_min":0,"x_max":0,"o":"m 133 -58 b 26 -186 126 -136 94 -186 b -19 -183 -4 -186 -8 -185 l -19 -108 b 15 -108 -7 -108 6 -108 b 53 -62 38 -108 51 -86 l 121 685 l 74 685 l 74 764 l 126 764 l 147 988 b 256 1115 154 1064 188 1115 b 300 1111 285 1115 286 1114 l 300 1038 b 265 1038 288 1038 275 1038 b 228 990 243 1038 231 1015 l 207 764 l 258 764 l 258 685 l 201 685 l 133 -58 "},"≈":{"ha":311,"x_min":0,"x_max":0,"o":"m 303 682 b 214 568 299 608 260 568 b 150 594 183 568 163 582 b 99 626 131 614 121 626 b 68 574 83 626 69 608 l 8 578 b 97 686 11 644 50 686 b 171 653 138 686 161 664 b 211 628 182 640 194 628 b 244 685 233 628 240 647 l 303 682 m 303 532 b 214 418 299 458 260 418 b 150 444 183 418 163 432 b 99 476 131 464 121 476 b 68 424 83 476 69 458 l 8 428 b 97 536 11 494 50 536 b 171 503 138 536 161 514 b 211 478 182 490 194 478 b 244 535 233 478 240 497 l 303 532 "},"Δ":{"ha":407,"x_min":0,"x_max":0,"o":"m 181 1024 l 7 1024 l 7 1104 l 400 1104 l 400 1024 l 222 1024 l 222 710 b 354 558 296 699 354 635 b 221 408 354 482 296 418 l 221 96 l 400 96 l 400 7 l 7 7 l 7 96 l 179 96 l 179 408 b 49 558 106 419 49 482 b 181 710 49 635 107 699 m 222 611 l 200 564 l 181 611 l 181 676 b 82 558 125 665 82 617 b 179 442 82 500 124 453 l 179 507 l 200 553 l 221 507 l 221 442 b 321 558 276 451 321 500 b 222 676 321 617 278 665 m 204 561 b 247 617 218 579 238 601 b 275 579 274 654 314 586 b 204 561 258 576 226 568 m 196 561 b 125 579 174 568 142 576 b 153 617 86 586 126 654 b 196 561 163 601 182 579 m 204 556 b 275 538 226 549 258 540 b 247 500 314 531 274 463 b 204 556 238 515 218 538 m 196 556 b 153 500 182 538 163 515 b 125 538 126 463 86 531 b 196 556 142 540 174 549 "},"«":{"ha":326,"x_min":0,"x_max":0,"o":"m 167 454 l 167 521 l 314 778 l 314 646 l 233 488 l 314 331 l 314 197 m 10 454 l 10 521 l 157 778 l 157 646 l 76 488 l 157 331 l 157 197 "},"»":{"ha":326,"x_min":0,"x_max":0,"o":"m 171 331 l 251 488 l 171 646 l 171 778 l 318 521 l 318 454 l 171 197 m 14 331 l 94 488 l 14 646 l 14 778 l 161 521 l 161 454 l 14 197 "},"…":{"ha":606,"x_min":0,"x_max":0,"o":"m 450 0 l 450 171 l 558 171 l 558 0 m 249 0 l 249 171 l 357 171 l 357 0 m 46 0 l 46 171 l 154 171 l 154 0 "},"À":{"ha":321,"x_min":0,"x_max":0,"o":"m 106 271 b 85 0 106 240 85 0 l 0 0 l 115 1111 l 231 1111 l 321 0 l 235 0 b 218 271 235 0 219 240 b 106 271 218 271 107 271 m 213 354 b 175 796 213 354 175 768 b 168 1008 175 824 168 1008 b 158 797 168 1008 160 825 b 114 354 156 758 114 354 l 213 354 m 144 1151 l 63 1311 l 153 1311 l 226 1151 "},"Ã":{"ha":321,"x_min":0,"x_max":0,"o":"m 106 271 b 85 0 106 240 85 0 l 0 0 l 115 1111 l 231 1111 l 321 0 l 235 0 b 218 271 235 0 219 240 b 106 271 218 271 107 271 m 213 354 b 175 796 213 354 175 768 b 168 1008 175 824 168 1008 b 158 797 168 1008 160 825 b 114 354 156 758 114 354 l 213 354 m 154 1185 b 117 1211 140 1203 133 1211 b 86 1157 100 1211 90 1192 l 28 1164 b 110 1281 33 1232 65 1281 b 176 1242 136 1281 154 1272 b 207 1221 185 1228 193 1221 b 239 1278 226 1221 235 1242 l 296 1271 b 215 1153 290 1199 263 1153 b 154 1185 193 1153 176 1156 "},"Õ":{"ha":356,"x_min":0,"x_max":0,"o":"m 178 1117 b 328 931 275 1117 324 1060 b 329 560 328 881 329 669 b 328 176 329 438 329 249 b 178 -8 324 54 279 -8 b 31 174 76 -8 33 50 b 29 558 29 204 29 439 b 31 926 29 661 29 889 b 178 1117 33 1054 76 1117 m 181 78 b 238 160 222 78 235 115 b 240 557 240 208 240 472 b 239 938 240 632 240 893 b 179 1029 238 1001 224 1029 b 119 936 129 1029 119 993 b 118 553 119 890 118 633 b 119 160 118 468 118 207 b 181 78 121 113 133 78 m 171 1185 b 133 1211 157 1203 150 1211 b 103 1157 117 1211 107 1192 l 44 1164 b 126 1281 50 1232 82 1281 b 193 1242 153 1281 171 1272 b 224 1221 201 1228 210 1221 b 256 1278 243 1221 251 1242 l 313 1271 b 232 1153 307 1199 279 1153 b 171 1185 210 1153 193 1156 "},"Œ":{"ha":492,"x_min":0,"x_max":0,"o":"m 493 1111 l 493 1022 l 326 1022 l 326 604 l 469 604 l 469 518 l 326 518 l 326 89 l 490 89 l 490 0 l 268 0 b 268 35 268 0 268 46 b 178 -8 253 11 221 -8 b 31 174 76 -8 33 50 b 29 558 29 204 29 456 b 31 926 29 661 29 904 b 178 1117 32 1044 75 1117 b 271 1079 210 1117 250 1106 l 271 1111 m 181 78 b 238 161 222 78 235 115 b 240 557 240 207 240 463 b 239 935 240 635 240 890 b 179 1026 238 999 224 1026 b 119 933 129 1026 122 989 b 118 553 118 888 118 633 b 119 161 118 468 118 210 b 181 78 122 111 133 78 "},"œ":{"ha":429,"x_min":0,"x_max":0,"o":"m 140 -7 b 25 117 64 -7 28 47 b 24 381 25 169 24 303 b 26 642 24 457 25 592 b 144 771 31 719 67 771 b 224 733 181 771 211 756 b 300 771 236 756 260 771 b 406 682 367 771 401 725 b 413 344 411 657 413 567 l 260 344 l 260 121 b 300 67 260 79 278 67 b 339 121 319 67 339 81 l 339 228 l 413 228 b 406 104 413 225 411 132 b 301 -7 400 28 363 -7 b 222 28 271 -7 235 3 b 140 -7 208 4 174 -7 m 185 629 b 143 694 183 678 171 694 b 101 629 115 694 101 674 l 101 126 b 143 68 101 86 118 68 b 185 128 169 68 185 88 l 185 629 m 338 647 b 297 696 338 682 318 696 b 260 646 278 696 261 682 b 258 404 260 633 258 417 l 338 404 "},"–":{"ha":292,"x_min":0,"x_max":0,"o":"m 14 444 l 14 532 l 278 532 l 278 444 "},"—":{"ha":556,"x_min":0,"x_max":0,"o":"m 69 444 l 69 532 l 486 532 l 486 444 "},"“":{"ha":288,"x_min":0,"x_max":0,"o":"m 260 840 l 161 840 l 161 1006 l 226 1113 l 271 1093 l 235 1001 l 235 994 l 260 994 m 131 840 l 32 840 l 32 1006 l 97 1113 l 142 1093 l 106 1001 l 106 994 l 131 994 "},"”":{"ha":288,"x_min":0,"x_max":0,"o":"m 161 1111 l 261 1111 l 261 946 l 194 838 l 150 858 l 186 949 l 186 957 l 161 957 m 32 1111 l 131 1111 l 131 946 l 65 838 l 21 858 l 57 949 l 57 957 l 32 957 "},"‘":{"ha":153,"x_min":0,"x_max":0,"o":"m 129 840 l 28 840 l 28 1006 l 93 1113 l 140 1093 l 103 1001 l 103 994 l 129 994 "},"’":{"ha":153,"x_min":0,"x_max":0,"o":"m 28 1111 l 129 1111 l 129 946 l 64 838 l 17 858 l 54 949 l 54 957 l 28 957 "},"÷":{"ha":306,"x_min":0,"x_max":0,"o":"m 117 646 l 117 731 l 189 731 l 189 646 m 4 521 l 4 590 l 300 590 l 300 521 m 117 381 l 117 464 l 189 464 l 189 381 "},"◊":{"ha":342,"x_min":0,"x_max":0,"o":"m 224 0 l 117 0 l 26 444 l 117 889 l 224 889 l 314 444 m 171 826 l 101 444 l 171 63 l 240 444 "},"ÿ":{"ha":275,"x_min":0,"x_max":0,"o":"m 135 -222 l 53 -222 l 94 47 l 0 764 l 82 764 b 136 226 82 754 136 233 b 194 764 138 233 193 753 l 275 764 m 171 808 l 171 933 l 244 933 l 244 808 m 32 808 l 32 933 l 104 933 l 104 808 "},"Ÿ":{"ha":353,"x_min":0,"x_max":0,"o":"m 217 414 l 217 0 l 126 0 l 126 410 l 0 1111 l 88 1111 b 174 553 88 1111 172 611 b 264 1111 175 613 264 1111 l 353 1111 m 208 1151 l 208 1276 l 282 1276 l 282 1151 m 69 1151 l 69 1276 l 142 1276 l 142 1151 "},"⁄":{"ha":108,"x_min":0,"x_max":0,"o":"m 208 1111 b 79 544 208 1111 122 722 b -40 0 39 378 -40 0 l -104 0 b 32 590 -104 0 -11 407 b 147 1111 71 751 147 1111 l 208 1111 "},"¤":{"ha":346,"x_min":0,"x_max":0,"o":"m 322 308 b 317 167 321 283 319 201 b 186 -7 310 53 276 -7 b 54 168 96 -7 61 50 b 49 458 51 208 50 358 l 10 458 l 10 524 l 49 524 l 49 581 l 10 581 l 10 646 l 49 646 b 56 951 50 750 53 907 b 186 1117 63 1061 97 1117 b 314 954 272 1117 303 1057 b 322 779 321 892 322 806 l 236 779 l 236 926 b 186 1036 236 1000 224 1036 b 136 926 147 1036 136 1001 l 136 646 l 235 646 l 235 581 l 136 581 l 136 524 l 235 524 l 235 458 l 136 458 l 136 179 b 188 69 136 104 147 69 b 238 179 224 69 238 106 l 238 308 l 322 308 "},"‹":{"ha":167,"x_min":0,"x_max":0,"o":"m 10 454 l 10 521 l 157 778 l 157 646 l 72 488 l 157 331 l 157 197 "},"›":{"ha":167,"x_min":0,"x_max":0,"o":"m 10 331 l 94 488 l 10 646 l 10 778 l 156 521 l 156 454 l 10 197 "},"ﬁ":{"ha":347,"x_min":0,"x_max":0,"o":"m 131 688 l 131 0 l 51 0 l 51 685 l 3 685 l 3 764 l 51 764 l 51 988 b 153 1115 51 1064 82 1115 b 197 1111 183 1115 182 1114 l 197 1036 b 165 1038 188 1036 176 1038 b 131 986 143 1038 131 1017 l 131 764 l 317 764 b 317 61 317 764 317 143 b 324 0 317 36 324 0 l 244 0 b 236 51 242 0 236 29 b 236 688 236 125 236 583 "},"ﬂ":{"ha":343,"x_min":0,"x_max":0,"o":"m 3 764 l 50 764 l 50 988 b 147 1115 50 1064 79 1115 b 189 1111 176 1115 175 1114 l 189 1036 b 158 1038 179 1038 169 1038 b 129 993 139 1038 129 1018 l 129 764 l 179 764 l 179 685 l 129 685 l 129 0 l 50 0 l 50 685 l 3 685 m 243 0 b 238 43 240 4 238 24 b 238 1050 238 219 238 856 b 235 1111 238 1069 236 1104 l 315 1111 b 317 1071 315 1111 317 1089 b 317 57 317 913 317 299 b 321 0 317 22 318 6 "},"‡":{"ha":213,"x_min":0,"x_max":0,"o":"m 189 489 l 189 419 l 146 419 b 146 -14 146 385 146 -14 l 107 -125 l 68 -14 b 68 419 68 -14 68 385 l 24 419 l 24 489 l 68 489 b 68 685 68 493 68 682 l 24 685 l 24 756 l 68 756 b 67 1101 67 817 67 1101 l 147 1101 b 146 756 147 1101 147 818 l 189 756 l 189 685 l 146 685 b 146 489 146 682 146 494 "},"·":{"ha":201,"x_min":0,"x_max":0,"o":"m 46 458 l 46 629 l 154 629 l 154 458 "},"‚":{"ha":153,"x_min":0,"x_max":0,"o":"m 28 154 l 129 154 l 129 -11 l 64 -119 l 17 -99 l 54 -8 l 54 0 l 28 0 "},"„":{"ha":288,"x_min":0,"x_max":0,"o":"m 161 154 l 261 154 l 261 -11 l 194 -119 l 150 -99 l 186 -8 l 186 0 l 161 0 m 32 154 l 131 154 l 131 -11 l 65 -119 l 21 -99 l 57 -8 l 57 0 l 32 0 "},"‰":{"ha":751,"x_min":0,"x_max":0,"o":"m 736 156 b 625 -8 736 44 701 -8 b 519 156 546 -8 519 49 l 519 390 b 628 556 519 490 551 556 b 736 390 714 556 736 483 l 736 156 m 488 156 b 376 -8 488 44 453 -8 b 271 156 297 -8 271 49 l 271 390 b 379 556 271 490 303 556 b 488 390 465 556 488 483 l 488 156 m 233 722 b 122 557 233 611 199 557 b 17 722 43 557 17 615 l 17 957 b 125 1121 17 1056 49 1121 b 233 957 211 1121 233 1050 l 233 722 m 124 0 l 72 0 l 365 1061 l 417 1061 m 169 974 b 125 1047 169 1024 151 1047 b 81 974 97 1047 81 1025 l 81 724 b 125 629 81 651 97 629 b 169 721 154 629 169 650 m 672 407 b 628 481 672 457 654 481 b 583 407 600 481 583 460 l 583 157 b 628 64 583 86 600 64 b 672 156 657 64 672 83 m 424 407 b 379 481 424 457 406 481 b 335 407 351 481 335 460 l 335 157 b 379 64 335 86 351 64 b 424 156 408 64 424 83 "},"Â":{"ha":321,"x_min":0,"x_max":0,"o":"m 106 271 b 85 0 106 240 85 0 l 0 0 l 115 1111 l 231 1111 l 321 0 l 235 0 b 218 271 235 0 219 240 b 106 271 218 271 107 271 m 213 354 b 175 796 213 354 175 768 b 168 1008 175 824 168 1008 b 158 797 168 1008 160 825 b 114 354 156 758 114 354 l 213 354 m 206 1151 l 160 1254 l 115 1151 l 43 1151 l 113 1313 l 210 1313 l 278 1151 "},"Ê":{"ha":289,"x_min":0,"x_max":0,"o":"m 38 0 l 38 1111 l 286 1111 l 286 1028 l 124 1028 l 124 603 l 267 603 l 267 519 l 124 519 l 124 83 l 288 83 l 288 0 m 201 1151 l 156 1254 l 111 1151 l 39 1151 l 108 1313 l 206 1313 l 274 1151 "},"Á":{"ha":321,"x_min":0,"x_max":0,"o":"m 106 271 b 85 0 106 240 85 0 l 0 0 l 115 1111 l 231 1111 l 321 0 l 235 0 b 218 271 235 0 219 240 b 106 271 218 271 107 271 m 213 354 b 175 796 213 354 175 768 b 168 1008 175 824 168 1008 b 158 797 168 1008 160 825 b 114 354 156 758 114 354 l 213 354 m 186 1311 l 278 1311 l 193 1151 l 117 1151 "},"Ë":{"ha":289,"x_min":0,"x_max":0,"o":"m 38 0 l 38 1111 l 286 1111 l 286 1028 l 124 1028 l 124 603 l 267 603 l 267 519 l 124 519 l 124 83 l 288 83 l 288 0 m 186 1151 l 186 1276 l 260 1276 l 260 1151 m 47 1151 l 47 1276 l 119 1276 l 119 1151 "},"È":{"ha":289,"x_min":0,"x_max":0,"o":"m 38 0 l 38 1111 l 286 1111 l 286 1028 l 124 1028 l 124 603 l 267 603 l 267 519 l 124 519 l 124 83 l 288 83 l 288 0 m 143 1151 l 61 1311 l 151 1311 l 225 1151 "},"Í":{"ha":161,"x_min":0,"x_max":0,"o":"m 38 0 l 38 1111 l 125 1111 l 125 0 m 100 1311 l 192 1311 l 107 1151 l 31 1151 "},"Î":{"ha":161,"x_min":0,"x_max":0,"o":"m 38 0 l 38 1111 l 125 1111 l 125 0 m 126 1151 l 81 1254 l 36 1151 l -36 1151 l 33 1313 l 131 1313 l 199 1151 "},"Ï":{"ha":161,"x_min":0,"x_max":0,"o":"m 38 0 l 38 1111 l 125 1111 l 125 0 m 114 1151 l 114 1276 l 188 1276 l 188 1151 m -25 1151 l -25 1276 l 47 1276 l 47 1151 "},"Ì":{"ha":161,"x_min":0,"x_max":0,"o":"m 38 0 l 38 1111 l 125 1111 l 125 0 m 47 1151 l -35 1311 l 56 1311 l 129 1151 "},"Ó":{"ha":356,"x_min":0,"x_max":0,"o":"m 178 1117 b 328 931 275 1117 324 1060 b 329 560 328 881 329 669 b 328 176 329 438 329 249 b 178 -8 324 54 279 -8 b 31 174 76 -8 33 50 b 29 558 29 204 29 439 b 31 926 29 661 29 889 b 178 1117 33 1054 76 1117 m 181 78 b 238 160 222 78 235 115 b 240 557 240 208 240 472 b 239 938 240 632 240 893 b 179 1029 238 1001 224 1029 b 119 936 129 1029 119 993 b 118 553 119 890 118 633 b 119 160 118 468 118 207 b 181 78 121 113 133 78 m 194 1311 l 286 1311 l 201 1151 l 125 1151 "},"Ô":{"ha":356,"x_min":0,"x_max":0,"o":"m 178 1117 b 328 931 275 1117 324 1060 b 329 560 328 881 329 669 b 328 176 329 438 329 249 b 178 -8 324 54 279 -8 b 31 174 76 -8 33 50 b 29 558 29 204 29 439 b 31 926 29 661 29 889 b 178 1117 33 1054 76 1117 m 181 78 b 238 160 222 78 235 115 b 240 557 240 208 240 472 b 239 938 240 632 240 893 b 179 1029 238 1001 224 1029 b 119 936 129 1029 119 993 b 118 553 119 890 118 633 b 119 160 118 468 118 207 b 181 78 121 113 133 78 m 222 1151 l 176 1254 l 132 1151 l 60 1151 l 129 1313 l 226 1313 l 294 1151 "},"":{"ha":407,"x_min":0,"x_max":0,"o":"m 181 1024 l 7 1024 l 7 1104 l 400 1104 l 400 1024 l 222 1024 l 222 710 b 354 558 296 699 354 635 b 221 408 354 482 296 418 l 221 96 l 400 96 l 400 7 l 7 7 l 7 96 l 179 96 l 179 408 b 49 558 106 419 49 482 b 181 710 49 635 107 699 m 222 611 l 200 564 l 181 611 l 181 676 b 82 558 125 665 82 617 b 179 442 82 500 124 453 l 179 507 l 200 553 l 221 507 l 221 442 b 321 558 276 451 321 500 b 222 676 321 617 278 665 m 204 561 b 247 617 218 579 238 601 b 275 579 274 654 314 586 b 204 561 258 576 226 568 m 196 561 b 125 579 174 568 142 576 b 153 617 86 586 126 654 b 196 561 163 601 182 579 m 204 556 b 275 538 226 549 258 540 b 247 500 314 531 274 463 b 204 556 238 515 218 538 m 196 556 b 153 500 182 538 163 515 b 125 538 126 463 86 531 b 196 556 142 540 174 549 "},"Ò":{"ha":356,"x_min":0,"x_max":0,"o":"m 178 1117 b 328 931 275 1117 324 1060 b 329 560 328 881 329 669 b 328 176 329 438 329 249 b 178 -8 324 54 279 -8 b 31 174 76 -8 33 50 b 29 558 29 204 29 439 b 31 926 29 661 29 889 b 178 1117 33 1054 76 1117 m 181 78 b 238 160 222 78 235 115 b 240 557 240 208 240 472 b 239 938 240 632 240 893 b 179 1029 238 1001 224 1029 b 119 936 129 1029 119 993 b 118 553 119 890 118 633 b 119 160 118 468 118 207 b 181 78 121 113 133 78 m 160 1151 l 78 1311 l 168 1311 l 242 1151 "},"Ú":{"ha":350,"x_min":0,"x_max":0,"o":"m 315 149 b 176 -8 315 50 269 -8 b 31 149 86 -8 31 43 b 31 1111 31 158 31 1111 l 117 1111 b 117 158 117 1111 117 196 b 175 76 117 94 136 76 b 229 157 215 76 229 99 b 229 1111 229 193 229 1111 l 315 1111 b 315 149 315 1111 315 158 m 183 1311 l 275 1311 l 190 1151 l 114 1151 "},"Û":{"ha":350,"x_min":0,"x_max":0,"o":"m 315 149 b 176 -8 315 50 269 -8 b 31 149 86 -8 31 43 b 31 1111 31 158 31 1111 l 117 1111 b 117 158 117 1111 117 196 b 175 76 117 94 136 76 b 229 157 215 76 229 99 b 229 1111 229 193 229 1111 l 315 1111 b 315 149 315 1111 315 158 m 219 1151 l 174 1254 l 129 1151 l 57 1151 l 126 1313 l 224 1313 l 292 1151 "},"Ù":{"ha":350,"x_min":0,"x_max":0,"o":"m 315 149 b 176 -8 315 50 269 -8 b 31 149 86 -8 31 43 b 31 1111 31 158 31 1111 l 117 1111 b 117 158 117 1111 117 196 b 175 76 117 94 136 76 b 229 157 215 76 229 99 b 229 1111 229 193 229 1111 l 315 1111 b 315 149 315 1111 315 158 m 174 1151 l 92 1311 l 182 1311 l 256 1151 "},"ı":{"ha":142,"x_min":0,"x_max":0,"o":"m 38 0 b 31 51 36 0 31 29 b 31 764 31 143 31 764 l 111 764 b 111 61 111 764 111 143 b 118 0 111 36 118 0 "},"ˆ":{"ha":340,"x_min":0,"x_max":0,"o":"m 215 808 l 169 911 l 125 808 l 53 808 l 122 969 l 219 969 l 288 808 "},"˜":{"ha":340,"x_min":0,"x_max":0,"o":"m 164 842 b 126 868 150 860 143 868 b 96 814 110 868 100 849 l 38 821 b 119 938 43 889 75 938 b 186 899 146 938 164 929 b 217 878 194 885 203 878 b 249 935 236 878 244 899 l 306 928 b 225 810 300 856 272 810 b 164 842 203 810 186 813 "},"¯":{"ha":340,"x_min":0,"x_max":0,"o":"m 57 824 l 57 890 l 282 890 l 282 824 "},"˘":{"ha":340,"x_min":0,"x_max":0,"o":"m 292 932 b 171 806 292 853 247 806 b 49 932 93 806 49 851 l 117 932 b 169 872 117 897 132 872 b 224 932 210 872 224 896 l 292 932 "},"˙":{"ha":340,"x_min":0,"x_max":0,"o":"m 131 808 l 131 935 l 211 935 l 211 808 "},"˚":{"ha":340,"x_min":0,"x_max":0,"o":"m 169 1004 b 269 900 225 1004 269 958 b 169 794 269 842 225 794 b 72 900 115 794 72 842 b 169 1004 72 958 115 1004 m 169 947 b 126 900 146 947 126 924 b 169 854 126 876 146 854 b 214 900 193 854 214 876 b 169 947 214 924 193 947 "},"¸":{"ha":340,"x_min":0,"x_max":0,"o":"m 218 -129 b 144 -74 218 -97 200 -74 l 144 0 l 192 0 l 192 -36 b 290 -124 242 -36 290 -64 b 96 -246 290 -186 257 -246 l 96 -187 b 218 -129 193 -187 218 -171 "},"˝":{"ha":340,"x_min":0,"x_max":0,"o":"m 210 968 l 290 968 l 238 808 l 172 808 m 108 968 l 188 968 l 136 808 l 69 808 "},"˛":{"ha":358,"x_min":0,"x_max":0,"o":"m 168 -112 b 226 -190 168 -143 183 -175 l 226 -244 b 101 -114 135 -217 101 -165 b 196 0 101 -64 136 -19 l 226 -24 b 168 -112 185 -47 168 -81 "},"ˇ":{"ha":340,"x_min":0,"x_max":0,"o":"m 125 972 l 169 869 l 215 972 l 288 972 l 218 811 l 121 811 l 51 972 "},"€":{"ha":346,"x_min":0,"x_max":0,"o":"m 322 308 b 317 167 321 283 319 201 b 186 -7 310 53 276 -7 b 54 168 96 -7 61 50 b 49 458 51 208 50 358 l 10 458 l 10 524 l 49 524 l 49 581 l 10 581 l 10 646 l 49 646 b 56 951 50 750 53 907 b 186 1117 63 1061 97 1117 b 314 954 272 1117 303 1057 b 322 779 321 892 322 806 l 236 779 l 236 926 b 186 1036 236 1000 224 1036 b 136 926 147 1036 136 1001 l 136 646 l 235 646 l 235 581 l 136 581 l 136 524 l 235 524 l 235 458 l 136 458 l 136 179 b 188 69 136 104 147 69 b 238 179 224 69 238 106 l 238 308 l 322 308 "},"µ":{"ha":290,"x_min":0,"x_max":0,"o":"m 188 0 l 185 33 b 129 -1 175 7 153 0 b 104 10 115 -1 108 4 l 104 -222 l 29 -222 l 29 764 l 107 764 l 107 107 b 139 60 107 75 115 60 b 182 140 168 60 182 83 l 182 764 l 261 764 l 261 85 b 263 0 261 53 261 13 "}}}
